<svg xmlns="http://www.w3.org/2000/svg" viewBox="0 0 412.83 303.01"><defs><style>.cls-1{fill:#b1764e;}.cls-2{fill:#fefefd;}.cls-3{fill:#fdfcfc;}.cls-4{fill:#b1774f;}.cls-5{fill:#b47b55;}.cls-6{fill:#fcfbfa;}.cls-7{fill:#f6f5f2;}</style></defs><g id="Layer_2" data-name="Layer 2"><g id="icons-howto_Image" data-name="icons-howto Image"><path class="cls-1" d="M80,286.55c-9.68-1.3-19.41-2.38-29.05-4-7.64-1.27-13.52-5.07-16.29-12.9-1.63-4.6-5.5-6.86-10.25-7.34-5.36-.55-10.75-.8-16.11-1.33-4.83-.47-6-1.77-7.32-6.44C-1,247.86.23,241.5,2.8,235.33c3-7.16,6.12-14.27,9.51-21.25,8.89-18.3,18.24-36.38,26.87-54.8,10.68-22.77,21.61-45.39,34.33-67.11,2.9-5,5.14-10.28,7.6-15.48,3.13-6.64,7.53-11.29,15.62-11,2.48.09,5-.58,7.47-1,16.35-2.54,30.3,3.83,43.86,11.71q12.9,7.5,25.8,14.94a52,52,0,0,0,24.38,6.57c10.52.4,20.68,0,30.5-4.76,11.34-5.48,23.86-5.8,36.17-6.72,2.15-.16,4.32.07,6.47-.11,8.1-.67,15.25,1.65,22.08,6,7.87,5,16,9.71,24.24,14,14.26,7.47,29.3,8.53,45.07,5.55,7.53-1.42,15.45-1,23.2-1,4.13,0,5.65,3.15,3.51,6.83-2.71,4.65-5.25,9.61-8.88,13.48-12,12.79-21.38,27.27-29.6,42.69-8.11,15.22-16.76,30.14-25.44,45a89.36,89.36,0,0,1-9.65,13.39,103.71,103.71,0,0,0-20.72,37c-3.33,10.46-8.15,20.45-12.38,30.61-.87,2.11-2.12,3.5-5,2.85-7.21-1.64-14.44-3.6-21.76-4.22s-14.77.19-22.16.44c-6.46.21-12.94.94-19.37.6a18.76,18.76,0,0,1-9.56-3.51c-6.37-4.66-12.38-9.84-18.29-15.07a22.32,22.32,0,0,0-15.34-5.81c-18.72-.25-36.87,3.68-55.17,6.7C104.29,284,92.24,285,80,286.55ZM385.58,115.7c-7.59-1.1-14.23-1.39-20.85.2-19,4.55-36.89,1.75-53.75-7.91-7.48-4.28-14.72-9-22.32-13.09-3.61-1.93-7.76-3.84-11.72-4-18.32-.52-36.38,1-53.36,9-9.07,4.28-18.86,2.44-28.39,2.28a47.57,47.57,0,0,1-22.6-6.45c-8.25-4.63-16.53-9.23-24.55-14.26-15.1-9.47-30.94-15-49.1-11.37-5.58,1.12-10.3,2.94-13,8.27-2,3.84-3.87,7.71-6,11.44-14.06,24.39-26.74,49.47-38.58,75C32.9,183,23.52,200.67,14.85,218.68a180,180,0,0,0-9.53,23.17c-1.18,3.72-.26,8.19.17,12.27.1,1,2,2.36,3.19,2.51,5.22.66,10.5.9,15.75,1.38,6.46.58,11.69,3.47,14,9.67,2.38,6.43,7,9.28,13.24,10.69,21.21,4.81,42.38,3.46,63.5-.47,18.73-3.48,37.41-7.08,56.59-6.91a25.38,25.38,0,0,1,17.63,6.76c4.89,4.42,9.79,8.87,15.08,12.79,3,2.21,6.62,4.29,10.18,4.75a59.93,59.93,0,0,0,16.1-.37c9.93-1.44,19.77-1.87,29.7-.25,6.1,1,12.24,1.77,18.63,2.68,3.69-8.82,8.28-17.63,11.09-27,5-16.54,13.33-30.84,24.56-43.82,4.1-4.74,7.15-10.45,10.3-15.94,16.18-28.21,29.73-58.06,52.23-82.3C380.48,124.83,382.6,120.28,385.58,115.7Z"/><path class="cls-1" d="M327.53,0C346,1.07,363.28,1.49,380.4,3.22c18.74,1.89,28.69,15.89,31.69,33.12.89,5.13.71,10.49.74,15.74,0,5-2.22,9.26-5.48,12.94C398.52,75,387,79.89,374.2,82.16c-11.88,2.11-23.42.67-35-2.68-9.38-2.7-19.22-3.75-28.84-5.65-13.95-2.76-27.86-5.78-41.85-8.33a24.84,24.84,0,0,0-10.89.4c-7.8,2.23-15.36,5.3-23.08,7.84-1.25.41-2.82-.12-4.24-.22.23-1.4.12-3,.74-4.18,2.82-5.41,5.89-10.69,8.77-16.07a4.8,4.8,0,0,0,.41-2.73,26.51,26.51,0,0,1,2.42-15.7c1.74-3.61,1.83-8.19,4.05-11.36,7.82-11.2,18.29-18.15,32.5-18.92,10.38-.57,20.71-2,31.07-3C316.41,1,322.61.44,327.53,0Zm-89.2,67.48c1.22-.49,2.43-1,3.66-1.46,11.29-4.32,22.38-7.53,34.83-3.31,9.1,3.09,18.92,4.13,28.45,5.95C317,70.89,329,72.24,340.5,75.35c11.19,3,22.14,4.89,33.58,2.52,11.61-2.4,22.44-6.46,30.09-16.06a19.4,19.4,0,0,0,4.13-9.63,53.88,53.88,0,0,0-.64-16.09c-3-14.35-10.78-26.26-26.56-28.16-7.48-.9-15-1.46-22.53-1.88-5.38-.29-10.91.63-16.16-.25-11.2-1.88-22.22-.4-33.3.58-10,.89-20,2.23-30,2.72-12.16.6-21.46,6.48-28,15.91-3.58,5.18-4.64,12.17-6.55,18.43-.49,1.6-.52,3.92.32,5.22,1.53,2.38.58,4-.51,5.9-2.27,4.07-4.4,8.23-6.58,12.35l-.36.56Z"/><path class="cls-2" d="M385.58,115.7c-3,4.58-5.1,9.13-8.35,12.63-22.5,24.24-36.05,54.09-52.23,82.3-3.15,5.49-6.2,11.2-10.3,15.94-11.23,13-19.58,27.28-24.56,43.82-2.81,9.33-7.4,18.14-11.09,27-6.39-.91-12.53-1.68-18.63-2.68-9.93-1.62-19.77-1.19-29.7.25a59.93,59.93,0,0,1-16.1.37c-3.56-.46-7.21-2.54-10.18-4.75-5.29-3.92-10.19-8.37-15.08-12.79A25.38,25.38,0,0,0,171.73,271c-19.18-.17-37.86,3.43-56.59,6.91-21.12,3.93-42.29,5.28-63.5.47-6.22-1.41-10.86-4.26-13.24-10.69-2.28-6.2-7.51-9.09-14-9.67-5.25-.48-10.53-.72-15.75-1.38-1.2-.15-3.09-1.53-3.19-2.51-.43-4.08-1.35-8.55-.17-12.27a180,180,0,0,1,9.53-23.17c8.67-18,18-35.69,26.45-53.82,11.84-25.55,24.52-50.63,38.58-75,2.16-3.73,4.06-7.6,6-11.44,2.73-5.33,7.45-7.15,13-8.27,18.16-3.64,34,1.9,49.1,11.37,8,5,16.3,9.63,24.55,14.26a47.57,47.57,0,0,0,22.6,6.45c9.53.16,19.32,2,28.39-2.28,17-8,35-9.5,53.36-9,4,.11,8.11,2,11.72,4C296.26,99,303.5,103.71,311,108c16.86,9.66,34.77,12.46,53.75,7.91C371.35,114.31,378,114.6,385.58,115.7Zm-110.17,3.84c-2.56-2.4-5.25-2.76-8.07-1.15s-3.52,4.39-2.89,7.17a16.62,16.62,0,0,0,3.19,7c2.24,2.59,5.26,4.49,7.85,6.79a17,17,0,0,1,1.9,2.68c.6.78,1.19,2,1.95,2.13a3.23,3.23,0,0,0,2.78-1.09c3.62-6.21,7.34-12.47,7-20-.15-3.37-.45-7.09-4.26-8.41s-6.31,1.18-8.45,4A10.09,10.09,0,0,1,275.41,119.54ZM304,129.42c-1.59-3.64-4.07-5.46-7.81-4.38-4,1.15-4,4.65-3.47,7.68a140,140,0,0,0,3.61,14.8c.17.58,1.83,1.15,2.7,1a20.71,20.71,0,0,0,15.33-10.09c2.55-4.09,2.86-9,.71-11.07S308.6,125.9,304,129.42Zm-47.78,24.87c-4.17-4-7.51-7.37-11.08-10.5-.84-.74-2.42-.63-3.66-.91,0,1.28-.42,2.67,0,3.79s1.54,1.79,2.44,2.58c3.12,2.77,6.28,5.49,9.48,8.29-2.11,3.61-4.13,7-6.07,10.41-.93,1.66-3.05,3.65-.21,5.12,2.37,1.24,3.2-1.09,4.14-2.78,1.8-3.19,3.69-6.32,5.65-9.66a94.54,94.54,0,0,0,7.5,5.83c1.06.68,2.69.45,4.07.64-.5-1.41-.66-3.12-1.57-4.16a28.29,28.29,0,0,0-5.26-4.33c-1.78-1.25-1.8-2.45-.69-4.19a41.3,41.3,0,0,0,4.09-7.56c.36-1-.89-2.51-1.4-3.8-1.08.76-2.56,1.3-3.17,2.34C259,147.93,257.92,150.69,256.25,154.29ZM164.4,165.63a57.68,57.68,0,0,0-5.89,1.92c-5.53,2.5-11,5-16.42,7.83-.87.45-1,2.27-1.51,3.46,1.07.13,2.3.69,3.16.34q10.55-4.32,20.95-9a3.47,3.47,0,0,0,1.87-2.49C166.52,166.94,165.12,166.27,164.4,165.63Zm-43.82,36.66c.63.74,1.25,2,2.21,2.35.51.19,2.14-1.07,2.34-1.89,1.66-7.06,6.36-12.17,10.74-17.54.82-1,1.73-3.16,1.28-3.71-1.58-1.93-3.38-.59-4.45.85-3.43,4.57-6.76,9.22-9.9,14C121.78,197.89,121.45,199.88,120.58,202.29Zm71-40.4v.24c-2.39,0-4.79-.14-7.16.05a20.13,20.13,0,0,0-5.89,1.22c-.72.29-1.14,1.88-1.23,2.92,0,.34,1.45,1.2,2.2,1.15,6.77-.42,13.55-.91,20.3-1.61,1-.1,1.83-1.41,2.74-2.15-.92-.75-1.79-2.09-2.75-2.15A70.62,70.62,0,0,0,191.53,161.89Zm30.05,2.25v.11a57.59,57.59,0,0,0,7.85.4c1.36-.11,2.63-1.3,3.94-2-1.11-.82-2.17-2.25-3.33-2.34-5.71-.44-11.45-.62-17.18-.62-1.07,0-2.14,1.31-3.21,2,1,.81,1.91,2.21,3,2.33A83.24,83.24,0,0,0,221.58,164.14ZM60.5,247.91l.18.71c5.28-1.38,10.58-2.68,15.81-4.25.75-.22,1.14-1.7,1.69-2.6a10.31,10.31,0,0,0-3-1.32c-.86-.09-1.77.66-2.7.85-4.08.81-8.16,1.62-12.27,2.29-1.93.31-5-1.11-5,2.17,0,2.75,3,2,4.9,2.15ZM88,239.74a24,24,0,0,0,3.8-1.34c4-2.28,8.11-4.54,12-7.13,1.06-.72,1.35-2.57,2-3.91-1.47.15-3.13-.1-4.37.51-4.68,2.31-9.24,4.84-13.78,7.41-.79.45-1.86,1.65-1.71,2.22C86.11,238.39,87.28,239,88,239.74Zm33.89-30.36c-.61-.87-1.15-2.1-1.5-2a4.7,4.7,0,0,0-2.93,1.32c-2.65,3.51-5.15,7.14-7.53,10.84-.43.67-.37,2.36.11,2.73a3,3,0,0,0,2.83,0,21.57,21.57,0,0,0,4-4.51C118.67,215.08,120.19,212.25,121.89,209.38Z"/><path class="cls-3" d="M237.79,66.91c2.18-4.12,4.31-8.28,6.58-12.35,1.09-1.94,2-3.52.51-5.9-.84-1.3-.81-3.62-.32-5.22,1.91-6.26,3-13.25,6.55-18.43,6.52-9.43,15.82-15.31,28-15.91,10-.49,20-1.83,30-2.72,11.08-1,22.1-2.46,33.3-.58,5.25.88,10.78,0,16.16.25,7.52.42,15.05,1,22.53,1.88,15.78,1.9,23.53,13.81,26.56,28.16a53.88,53.88,0,0,1,.64,16.09,19.4,19.4,0,0,1-4.13,9.63c-7.65,9.6-18.48,13.66-30.09,16.06-11.44,2.37-22.39.5-33.58-2.52C329,72.24,317,70.89,305.27,68.66c-9.53-1.82-19.35-2.86-28.45-5.95-12.45-4.22-23.54-1-34.83,3.31-1.23.47-2.44,1-3.66,1.46Zm49.38-24.59c1.71,3.51,3.12,6.82,7.62,6.94,4.93.14,8.29-2.3,10.48-6.29a36.24,36.24,0,0,0,3.26-8.67A75.53,75.53,0,0,0,310,24.1a5.94,5.94,0,0,0-.65-3.44c-.33-.56-2.12-1-2.46-.66a5.92,5.92,0,0,0-1.71,3.19c-.31,2.36.25,4.92-.39,7.15-1.2,4.18-2.36,8.61-4.72,12.15-2.8,4.22-7.25,3.08-8.64-1.75-.52-1.81-.44-3.81-1-5.61a13.85,13.85,0,0,0-2.09-3.26,12.68,12.68,0,0,0-2.7,2.43c-1.35,2.23-2.16,4.82-3.67,6.92s-3.53,1.86-4.81-.52a8,8,0,0,1-1-3.41C276,32,276.11,26.75,279.15,22c.41-.65-.08-1.88-.15-2.84-1.1.14-2.33,0-3.23.49A4.69,4.69,0,0,0,274.21,22a31.63,31.63,0,0,0-2.14,16.91c.45,3.56,2.13,6.74,5.95,7.84,3.51,1,6-.93,8-3.5A10.35,10.35,0,0,1,287.17,42.32Zm59.46,2.84-1.39-.88c-.3-6.53-.18-13,2.25-19.31.41-1-.19-2.5-.33-3.77-1.19.65-2.62,1.07-3.51,2a5.92,5.92,0,0,0-1.24,3.31c-.61,5.69-1.36,11.39-1.52,17.1-.14,4.73,4.55,7.08,8.64,4.63a35.35,35.35,0,0,0,3.34-2.58c1.62,3.73,3.85,6.43,8,6.62,4.35.19,7.18-2.53,8.57-6,2.2-5.5,3.6-11.33,5.33-17,.61-2,.84-4.15-1.86-4.41s-2.36,2-2.54,3.82c-.61,6-2.09,11.83-5.75,16.75-.87,1.18-3.18,2.32-4.37,2s-2.31-2.52-2.6-4c-.35-1.79.43-3.77.33-5.65A13.22,13.22,0,0,0,356.69,34a18.28,18.28,0,0,0-3.3,2.09c-.73.71-.89,2-1.54,2.8C350.18,41.06,348.38,43.09,346.63,45.16Zm-34.14-9.91.89.46a36.72,36.72,0,0,0,.22,3.94c1,6,8.7,9.59,13.6,6.31,5.1-3.41,7.47-12.2,4.77-17.7-3-6.08-10.92-7.29-15-2C314.93,28.88,313.94,32.24,312.49,35.25ZM382,39.67h-.13a65.55,65.55,0,0,0,.07,7.15c.15,1.29,1.06,2.5,1.63,3.75,1-1,2.44-1.84,2.87-3,1.4-3.89,2.54-7.89,3.56-11.9a34.42,34.42,0,0,0,1.17-7.72,4.24,4.24,0,0,0-2-3.3c-1-.45-3.27-.09-3.8.7a22.67,22.67,0,0,0-3.28,7.22C381.56,34.79,382,37.28,382,39.67Zm4.64,19c-.91-2.95-1.18-5.33-4.34-5.31-2.65,0-3.12,2-2.94,4,.22,2.29.3,5.4,3.56,5.11C384.26,62.36,385.4,60,386.63,58.69Z"/><path class="cls-3" d="M238.33,67.48h-.9l.36-.56Z"/><path class="cls-1" d="M275.41,119.54a10.09,10.09,0,0,0,1-1c2.14-2.79,4.65-5.29,8.45-4s4.11,5,4.26,8.41c.33,7.57-3.39,13.83-7,20a3.23,3.23,0,0,1-2.78,1.09c-.76-.15-1.35-1.35-1.95-2.13a17,17,0,0,0-1.9-2.68c-2.59-2.3-5.61-4.2-7.85-6.79a16.62,16.62,0,0,1-3.19-7c-.63-2.78.1-5.57,2.89-7.17S272.85,117.14,275.41,119.54ZM279.57,137l1.66-.43c1.13-3.84,2.56-7.62,3.23-11.53.32-1.84-.81-3.94-1.29-5.92-1.43,1.69-2.9,3.35-4.3,5.07-1,1.2-1.83,2.49-2.74,3.73-1.06-1.1-2.1-2.23-3.21-3.28-.93-.88-2-1.67-2.94-2.49a15.16,15.16,0,0,0-1,3.83,4.38,4.38,0,0,0,1.31,2.87C273.3,131.68,276.46,134.33,279.57,137Z"/><path class="cls-1" d="M304,129.42c4.57-3.52,8.82-4.22,11.07-2s1.84,7-.71,11.07a20.71,20.71,0,0,1-15.33,10.09c-.87.12-2.53-.45-2.7-1a140,140,0,0,1-3.61-14.8c-.51-3-.52-6.53,3.47-7.68C300,124,302.44,125.78,304,129.42Zm7.65,1.78c-.32-.35-.64-.69-.95-1-1.66,1.61-3.25,3.29-5,4.8a28.77,28.77,0,0,1-3.38,2.19,33.43,33.43,0,0,1-2-3.44c-.66-1.47-1.09-3-1.9-5.38-2,4.24-.85,12.14,1.48,14.21a3.31,3.31,0,0,0,2.28.52C306.47,142.66,312,135.75,311.68,131.2Z"/><path class="cls-1" d="M256.25,154.29c1.67-3.6,2.75-6.36,4.24-8.89.61-1,2.09-1.58,3.17-2.34.51,1.29,1.76,2.85,1.4,3.8a41.3,41.3,0,0,1-4.09,7.56c-1.11,1.74-1.09,2.94.69,4.19a28.29,28.29,0,0,1,5.26,4.33c.91,1,1.07,2.75,1.57,4.16-1.38-.19-3,0-4.07-.64a94.54,94.54,0,0,1-7.5-5.83c-2,3.34-3.85,6.47-5.65,9.66-.94,1.69-1.77,4-4.14,2.78-2.84-1.47-.72-3.46.21-5.12,1.94-3.42,4-6.8,6.07-10.41-3.2-2.8-6.36-5.52-9.48-8.29-.9-.79-2.07-1.56-2.44-2.58s0-2.51,0-3.79c1.24.28,2.82.17,3.66.91C248.74,146.92,252.08,150.3,256.25,154.29Z"/><path class="cls-1" d="M164.4,165.63c.72.64,2.12,1.31,2.16,2.06a3.47,3.47,0,0,1-1.87,2.49q-10.4,4.66-20.95,9c-.86.35-2.09-.21-3.16-.34.49-1.19.64-3,1.51-3.46,5.38-2.79,10.89-5.33,16.42-7.83A57.68,57.68,0,0,1,164.4,165.63Z"/><path class="cls-4" d="M120.58,202.29c.87-2.41,1.2-4.4,2.22-5.95,3.14-4.77,6.47-9.42,9.9-14,1.07-1.44,2.87-2.78,4.45-.85.45.55-.46,2.72-1.28,3.71-4.38,5.37-9.08,10.48-10.74,17.54-.2.82-1.83,2.08-2.34,1.89C121.83,204.29,121.21,203,120.58,202.29Z"/><path class="cls-4" d="M191.53,161.89a70.62,70.62,0,0,1,8.21-.33c1,.06,1.83,1.4,2.75,2.15-.91.74-1.77,2-2.74,2.15-6.75.7-13.53,1.19-20.3,1.61-.75.05-2.23-.81-2.2-1.15.09-1,.51-2.63,1.23-2.92a20.13,20.13,0,0,1,5.89-1.22c2.37-.19,4.77-.05,7.16-.05Z"/><path class="cls-5" d="M221.58,164.14a83.24,83.24,0,0,1-8.94-.11c-1.07-.12-2-1.52-3-2.33,1.07-.7,2.14-2,3.21-2,5.73,0,11.47.18,17.18.62,1.16.09,2.22,1.52,3.33,2.34-1.31.7-2.58,1.89-3.94,2a57.59,57.59,0,0,1-7.85-.4Z"/><path class="cls-4" d="M60.5,247.91h-.36c-1.94-.13-4.86.6-4.9-2.15,0-3.28,3.06-1.86,5-2.17,4.11-.67,8.19-1.48,12.27-2.29.93-.19,1.84-.94,2.7-.85a10.31,10.31,0,0,1,3,1.32c-.55.9-.94,2.38-1.69,2.6-5.23,1.57-10.53,2.87-15.81,4.25Z"/><path class="cls-4" d="M88,239.74c-.72-.71-1.89-1.35-2.11-2.24-.15-.57.92-1.77,1.71-2.22,4.54-2.57,9.1-5.1,13.78-7.41,1.24-.61,2.9-.36,4.37-.51-.65,1.34-.94,3.19-2,3.91-3.84,2.59-7.91,4.85-12,7.13A24,24,0,0,1,88,239.74Z"/><path class="cls-4" d="M121.89,209.38c-1.7,2.87-3.22,5.7-5,8.35a21.57,21.57,0,0,1-4,4.51,3,3,0,0,1-2.83,0c-.48-.37-.54-2.06-.11-2.73,2.38-3.7,4.88-7.33,7.53-10.84a4.7,4.7,0,0,1,2.93-1.32C120.74,207.28,121.28,208.51,121.89,209.38Z"/><path class="cls-1" d="M287.17,42.32a10.35,10.35,0,0,0-1.13.94c-2.07,2.57-4.51,4.51-8,3.5-3.82-1.1-5.5-4.28-5.95-7.84A31.63,31.63,0,0,1,274.21,22a4.69,4.69,0,0,1,1.56-2.34c.9-.49,2.13-.35,3.23-.49.07,1,.56,2.19.15,2.84-3,4.73-3.11,10-2.91,15.27a8,8,0,0,0,1,3.41c1.28,2.38,3.25,2.68,4.81.52s2.32-4.69,3.67-6.92a12.68,12.68,0,0,1,2.7-2.43,13.85,13.85,0,0,1,2.09,3.26c.55,1.8.47,3.8,1,5.61,1.39,4.83,5.84,6,8.64,1.75,2.36-3.54,3.52-8,4.72-12.15.64-2.23.08-4.79.39-7.15A5.92,5.92,0,0,1,306.92,20c.34-.33,2.13.1,2.46.66A5.94,5.94,0,0,1,310,24.1a75.53,75.53,0,0,1-1.5,10.2A36.24,36.24,0,0,1,305.27,43c-2.19,4-5.55,6.43-10.48,6.29C290.29,49.14,288.88,45.83,287.17,42.32Z"/><path class="cls-1" d="M346.63,45.16c1.75-2.07,3.55-4.1,5.22-6.23.65-.83.81-2.09,1.54-2.8a18.28,18.28,0,0,1,3.3-2.09A13.22,13.22,0,0,1,358,37.67c.1,1.88-.68,3.86-.33,5.65.29,1.53,1.4,3.69,2.6,4s3.5-.78,4.37-2c3.66-4.92,5.14-10.72,5.75-16.75.18-1.8,0-4.07,2.54-3.82s2.47,2.4,1.86,4.41c-1.73,5.69-3.13,11.52-5.33,17-1.39,3.48-4.22,6.2-8.57,6-4.13-.19-6.36-2.89-8-6.62a35.35,35.35,0,0,1-3.34,2.58c-4.09,2.45-8.78.1-8.64-4.63.16-5.71.91-11.41,1.52-17.1a5.92,5.92,0,0,1,1.24-3.31c.89-.93,2.32-1.35,3.51-2,.14,1.27.74,2.72.33,3.77-2.43,6.3-2.55,12.78-2.25,19.31Z"/><path class="cls-1" d="M312.49,35.25c1.45-3,2.44-6.37,4.44-8.95,4.12-5.33,12.05-4.12,15,2,2.7,5.5.33,14.29-4.77,17.7-4.9,3.28-12.62-.28-13.6-6.31a36.72,36.72,0,0,1-.22-3.94Zm16.24-1c0-4.24-1.78-6.84-4.72-6.81-3.44,0-6.32,3.74-6.38,8.21s1.55,7.06,4.73,7.16C325.7,42.91,328.72,38.86,328.73,34.23Z"/><path class="cls-1" d="M382,39.67c0-2.39-.43-4.88.11-7.14a22.67,22.67,0,0,1,3.28-7.22c.53-.79,2.77-1.15,3.8-.7a4.24,4.24,0,0,1,2,3.3A34.42,34.42,0,0,1,390,35.63c-1,4-2.16,8-3.56,11.9-.43,1.2-1.88,2-2.87,3-.57-1.25-1.48-2.46-1.63-3.75a65.55,65.55,0,0,1-.07-7.15Z"/><path class="cls-1" d="M386.63,58.69c-1.23,1.33-2.37,3.67-3.72,3.79-3.26.29-3.34-2.82-3.56-5.11-.18-2,.29-4,2.94-4C385.45,53.36,385.72,55.74,386.63,58.69Z"/><path class="cls-6" d="M279.57,137c-3.11-2.7-6.27-5.35-9.28-8.15A4.38,4.38,0,0,1,269,126a15.16,15.16,0,0,1,1-3.83c1,.82,2,1.61,2.94,2.49,1.11,1,2.15,2.18,3.21,3.28.91-1.24,1.78-2.53,2.74-3.73,1.4-1.72,2.87-3.38,4.3-5.07.48,2,1.61,4.08,1.29,5.92-.67,3.91-2.1,7.69-3.23,11.53Z"/><path class="cls-7" d="M311.68,131.2c.27,4.55-5.21,11.46-9.5,11.86a3.31,3.31,0,0,1-2.28-.52c-2.33-2.07-3.46-10-1.48-14.21.81,2.34,1.24,3.91,1.9,5.38a33.43,33.43,0,0,0,2,3.44,28.77,28.77,0,0,0,3.38-2.19c1.74-1.51,3.33-3.19,5-4.8C311,130.51,311.36,130.85,311.68,131.2Z"/><path class="cls-6" d="M328.73,34.23c0,4.63-3,8.68-6.37,8.56-3.18-.1-4.79-2.55-4.73-7.16s2.94-8.17,6.38-8.21C327,27.39,328.75,30,328.73,34.23Z"/></g></g></svg>