<svg xmlns="http://www.w3.org/2000/svg" viewBox="0 0 391.54 301.13"><defs><style>.cls-1{fill:#787338;}.cls-2{fill:#ad7046;}.cls-3{fill:#7a753b;}.cls-4{fill:#f6f5f2;}.cls-5{fill:#f5f4f0;}.cls-6{fill:#f4f3ef;}</style></defs><g id="Layer_2" data-name="Layer 2"><g id="icons-howto_Image" data-name="icons-howto Image"><path class="cls-1" d="M123.87,13.24c13.24-5,26.77-8.66,40.92-10,6.36-.61,9.82,1.48,12.44,7.06,5.26,11.18,5.12,23.46,7.76,35.15,2,8.73,3.51,17.55,5.49,26.27q11.82,52.08,23.81,104.13c2.23,9.75,4.22,19.57,6.86,29.21,1.4,5.14,3.87,10,6,14.91,5.42,12.29,5.63,25.06,3.59,38-.89,5.63-4.3,9.11-9.83,10.63-13.9,3.82-27.75,7.81-41.66,11.55-17.37,4.66-34.71,9.48-52.21,13.58a272.66,272.66,0,0,1-30.39,4.86c-8.42,1-16.94,1-25.41,1.56-3,.19-5.93.87-8.9.95a45.12,45.12,0,0,1-9.94-.57c-1.41-.28-2.8-2.07-3.66-3.5-4.1-6.83-5-14.54-6.13-22.26a570.11,570.11,0,0,0-12.45-65c-5.36-20.51-10-41.23-14.49-61.94C13,135.3,11.26,122.53,8.6,110,6.26,98.9,2.69,88.08.72,77-.48,70.25.12,63.16.37,56.26c.07-1.93,1.52-4,2.74-5.68,6.35-8.8,16.09-11,25.91-12.94,6.56-1.26,13.19-2.19,19.79-3.26,1.93,3.08,4.21,6,5.7,9.28,1.33,2.92,3.19,3.61,6,3,10.45-2.26,21-4,31.29-7,11.64-3.35,23-7.79,34.45-11.74,1.85-.65,2.28-1.77,1.58-3.61C126.4,20.67,125.17,16.94,123.87,13.24ZM61,229.74l.52,1.19a22.83,22.83,0,0,0,3.52-.69c5.38-1.92,10.6-4.41,16.11-5.8,6.56-1.67,13.37-2.28,20-3.6q17-3.37,34-7.13c5-1.12,9.88-2.67,14.77-4.16,6.5-2,12.89-4.36,19.43-6.13,7.82-2.11,15.78-3.69,23.62-5.73,1.06-.27,1.77-1.86,2.63-2.84-1.33-.29-2.78-1.07-4-.77-3.24.81-6.29,2.62-9.54,3-12.17,1.6-23.67,5.12-35.3,9.09-13,4.44-26.95,6.11-40.47,9-2.8.6-5.52,1.54-8.31,2.14-9.2,2-18.47,3.65-27.6,5.93A16.2,16.2,0,0,0,61,229.74ZM31.23,90c2.72.51,5.13,1.09,7.58,1.4,2.82.36,5.37,0,7.37-2.59C46.81,88,48.81,87.71,50,88c5.66,1.21,10.87.66,15.63-2.91a14.37,14.37,0,0,1,3.54-1.6c5.34-2,11-3.48,16-6.15a32,32,0,0,1,14.61-4c4.5-.13,9.21-.19,13.43-1.54,7.16-2.29,14-5.25,21.73-5.65,6.76-.36,13.51-1.21,20.22-2.14a37.5,37.5,0,0,0,8.71-2.49c.91-.37,1.28-2.07,1.9-3.16a13.5,13.5,0,0,0-3.82-.26c-1.69.36-3.23,1.64-4.9,1.78-5,.43-10.1,0-15,.81-7.51,1.18-15.11,2.43-22.28,4.82a72.92,72.92,0,0,1-19.84,4.09c-5.15.25-10.24,2.58-15.26,4.27-3.14,1.06-6.06,2.73-9.15,4-3.87,1.54-8.09,2.42-11.64,4.48a16.87,16.87,0,0,1-13.31,2.12c-1.84-.45-4.91-.21-5.89,1-2.62,3.16-5.35,2.85-8.65,2C34.06,86.82,32.09,86.91,31.23,90ZM73.29,259.12c8.93-1.49,17.65-3.12,26.43-4.32,3.31-.45,6.74-.5,8.53-3.62,1.9-3.32,4.84-3.94,8.1-4.34a14.55,14.55,0,0,0,3.52-.58c7.76-3.12,15.39-6.59,23.23-9.46,12-4.4,24.14-8.43,36.24-12.56,4.62-1.57,9.34-2.86,13.91-4.58,1.11-.42,1.79-2,2.67-3.08-1.46-.23-3.06-1-4.34-.6-3.32,1-6.4,2.85-9.75,3.52a184.08,184.08,0,0,0-41,13.88c-8.79,4.09-17.35,8.71-27.06,10.34a12.79,12.79,0,0,0-8.06,4.86c-1.14,1.36-3.36,2.17-5.23,2.52-7.61,1.43-15.28,2.53-22.9,3.88C75,255.43,73,256.68,73.29,259.12Zm-11.14-69.4c1.95-1.27,3.35-2.67,5-3.16a84.55,84.55,0,0,1,8.76-1.63c6.29-1.15,13.3.14,18.25-5.58.59-.67,2-.83,3-.92A91.9,91.9,0,0,0,131,168.26c1.94-1,4.32-1.17,6.52-1.6,5-1,10.41-1,15-3a80.43,80.43,0,0,1,30.64-6.41,5.39,5.39,0,0,0,2.76-.59,2.9,2.9,0,0,0,1.28-2.2c-.07-.54-1.33-1.32-2.06-1.32a84.11,84.11,0,0,0-31.8,6.16c-4.13,1.7-8.74,2.24-13.11,3.39s-8.83,2-12.93,3.67c-8.52,3.58-17,7.08-26.32,7.91-4.23.38-8.69.56-11.64,4.54a3.14,3.14,0,0,1-1.88.94c-4.44.82-8.93,1.43-13.34,2.38a67.83,67.83,0,0,0-10.59,3C61.71,185.93,60.18,187.68,62.15,189.72Zm127.71-15-.3-1A29.47,29.47,0,0,0,186,174c-4.69.83-9.33,2.07-14.06,2.52a49.91,49.91,0,0,0-17.86,4.76,108.48,108.48,0,0,1-14.3,5.72c-3.47,1.15-7.21,2.42-10.77,2.25-13.73-.65-25.59,5.23-37.68,10.21-6.18,2.54-12,5.67-19,5.84a32.7,32.7,0,0,0-8.44,1.55c-.94.28-1.51,1.79-2.26,2.74.64.42,1.36,1.28,1.91,1.18,6.45-1.18,13-2,19.25-3.92A138.66,138.66,0,0,0,102,199c8.91-4.3,18.12-6.64,28-6.23a14.86,14.86,0,0,0,5.61-1c7.4-2.72,14.65-5.85,22.12-8.34,4.8-1.6,9.9-2.32,14.85-3.47,5.1-1.17,10.2-2.35,15.26-3.64C188.64,176.1,189.21,175.24,189.86,174.7ZM202,207.28l.48-1.41c-1.22-.67-2.4-1.83-3.66-1.92-3-.23-6.11-.51-8.91.24-5.83,1.57-11.53,3.68-17.22,5.76-7.27,2.67-14.74,5-21.62,8.46-7.59,3.82-14.9,7.8-23.55,8.89-5.28.67-10.41,2.5-15.62,3.73-3.82.91-7.76,1.38-11.46,2.61-8.59,2.84-17.16,5.53-26.26,6.17-1.1.08-2.11,1.32-3.17,2,1.22.42,2.5,1.33,3.63,1.17a74.85,74.85,0,0,0,13.84-2.92c8.27-2.78,17.09-3.89,25.64-5.85,8.83-2,17.62-4.18,26.4-6.38a13.57,13.57,0,0,0,4.22-1.93A100.31,100.31,0,0,1,172,213.5C181.77,210.53,190.93,204.77,202,207.28ZM80.05,273.56l1,.2c1.89-1.19,3.63-2.93,5.69-3.49,8.11-2.24,16.33-4.11,24.5-6.12,2.66-.65,5.33-1.27,8-1.95,12.57-3.23,25-6.92,37.75-9.54,7-1.44,14.15-1.4,20.62-5.11,4.12-2.37,8.74-3.86,13-6a30.91,30.91,0,0,0,6.23-4.16c.72-.62.66-2.15,1-3.27-1.09,0-2.35-.33-3.22.11-7.47,3.7-14.79,7.68-22.31,11.26a36.92,36.92,0,0,1-9.15,2.75c-5.85,1.08-11.89,1.35-17.63,2.8-11.91,3-23.66,6.64-35.51,9.86-7.11,1.93-14.36,3.38-21.43,5.43-2.56.74-4.9,2.45-7.11,4C80.67,271,80.51,272.48,80.05,273.56ZM46.4,111.8c6.23.42,12.26,1.23,18.27,1.07,3.31-.09,6.56-1.93,9.89-2.75,7.26-1.78,14.63-3.21,21.83-5.2,4.46-1.24,8.66-3.39,13.06-4.88,6.76-2.29,13.61-4.3,20.39-6.55,9-3,17.95-5.8,27.58-5a11.8,11.8,0,0,0,9-2.78c.82-.69,1.18-1.94,1.75-2.93a19,19,0,0,0-3.78.09c-2.47.55-4.85,1.68-7.34,2-3.79.43-7.89-.48-11.41.61-14.77,4.59-29.36,9.76-44.06,14.6q-8.46,2.79-17.09,5c-4.49,1.16-9.4,1.19-13.58,3-6.54,2.8-12.83,2.08-19.27.58-6.69-1.57-8.66.42-6.27,7.67Zm130.2-8.75.43,1.12c.21-1.18,1-2.75.48-3.44a4,4,0,0,0-3.4-1.11c-4.68.95-9.32,2.12-13.93,3.38-11.37,3.1-22.71,6.31-34.08,9.41-3,.81-6,1.92-9,2-9.55.21-19,.25-28.51,2.12-8.57,1.7-16.84,3-23.79,9.43-3.27,3-8.86,3.61-13.46,5.07-2,.64-4.26.58-6.31,1.15-.61.17-.94,1.38-1.4,2.11.59.25,1.22.79,1.77.72,9.55-1.24,18.8-3.11,26.08-10.32a13.29,13.29,0,0,1,6.91-3.45c12.11-1.9,24.1-4.81,36.55-4,3.36.22,6.87-.59,10.22-1.37,3.8-.89,7.47-2.37,11.25-3.42q17.92-5,35.91-9.75C173.64,102.36,175.17,102.91,176.6,103.05ZM50.91,149.37l.66,1.26c1.53-.47,3-1,4.6-1.39,5.72-1.61,11.38-4.17,17.19-4.54,8.25-.54,16.06-1.81,23.55-5.36a26.71,26.71,0,0,1,9.11-2.78,40.51,40.51,0,0,0,18.86-6.28,15.2,15.2,0,0,1,4.78-2.35c13.29-2.65,26.62-5.14,40-7.63a17.2,17.2,0,0,1,3.13,0l.2-1.17c-1.75-.6-3.58-1.89-5.23-1.69-8,1-16,2.19-24,3.65-7.75,1.42-15.36,3.15-22.18,7.66A27.22,27.22,0,0,1,109.9,133c-6.08.65-11.5,2.67-17.07,4.86-4.06,1.6-8.53,3.18-12.77,3.06-9.32-.25-17.57,3-25.94,6.15A14.54,14.54,0,0,0,50.91,149.37ZM189.6,138.25c.72-2.51-.07-4.23-4.14-4.64-8.13-.81-16.43-2.08-24,2.94a37.28,37.28,0,0,1-8.42,3.83c-5.52,1.93-11.25,3.28-16.68,5.43-9.17,3.62-18.39,6.34-28.39,6.89-10.82.6-21.35,2.24-30.91,8.81-5.13,3.52-12.21,4.18-18.36,6.26a14.6,14.6,0,0,0-3.14,2.1,11.94,11.94,0,0,0,3.35,1,21.46,21.46,0,0,0,5.27-.78c7-1.86,13.52-4.51,19.36-8.93A20.59,20.59,0,0,1,91,157.9a97.56,97.56,0,0,1,11.33-1.82c5.44-.67,11.08-.54,16.31-2,9.33-2.51,18.4-5.95,27.61-8.93,5.65-1.83,11.71-2.44,16.62-6.34,6.94-5.5,14.95-5,23-3.39C187.19,135.74,188.31,137.27,189.6,138.25Z"/><path class="cls-2" d="M123.87,13.24c1.3,3.7,2.53,7.43,3.91,11.1.7,1.84.27,3-1.58,3.61-11.47,3.95-22.81,8.39-34.45,11.74-10.25,3-20.84,4.72-31.29,7-2.76.6-4.62-.09-6-3-1.49-3.28-3.77-6.2-5.7-9.28a18.33,18.33,0,0,0-.19-2.79C48.06,29,48.88,27,51.29,26c3.39-1.41,6.89-2.57,10.36-3.83,1.34-.49,2.68-1,4.05-1.43,3-.89,3.67-2.88,3-5.78-1.4-5.93-1-6.69,5.06-8.55C77.94,5.14,82.19,4,86.49,3.07c4-.83,7.09.84,9.45,4.3,3.65,5.37,4.47,5.61,10.74,4A68.79,68.79,0,0,0,113.77,9c4.5-1.68,6.31-1.13,9,2.86C123.13,12.33,123.51,12.78,123.87,13.24Z"/><path class="cls-3" d="M253,11.88c2-2.29,3.75-4.25,5.74-6.49L391.54,123.57,385.76,130Z"/><path class="cls-3" d="M246.51,0l8.61,3.94-3.5,7.14Z"/><path class="cls-4" d="M61,229.74a16.2,16.2,0,0,1,9.44-6.42c9.13-2.28,18.4-3.95,27.6-5.93,2.79-.6,5.51-1.54,8.31-2.14,13.52-2.92,27.47-4.59,40.47-9,11.63-4,23.13-7.49,35.3-9.09,3.25-.43,6.3-2.24,9.54-3,1.18-.3,2.63.48,4,.77-.86,1-1.57,2.57-2.63,2.84-7.84,2-15.8,3.62-23.62,5.73-6.54,1.77-12.93,4.14-19.43,6.13-4.89,1.49-9.78,3-14.77,4.16q-16.95,3.78-34,7.13c-6.66,1.32-13.47,1.93-20,3.6-5.51,1.39-10.73,3.88-16.11,5.8a22.83,22.83,0,0,1-3.52.69Z"/><path class="cls-5" d="M31.23,90c.86-3.07,2.83-3.16,4.74-2.65,3.3.87,6,1.18,8.65-2,1-1.19,4.05-1.43,5.89-1a16.87,16.87,0,0,0,13.31-2.12c3.55-2.06,7.77-2.94,11.64-4.48,3.09-1.23,6-2.9,9.15-4,5-1.69,10.11-4,15.26-4.27a72.92,72.92,0,0,0,19.84-4.09c7.17-2.39,14.77-3.64,22.28-4.82,4.93-.77,10-.38,15-.81,1.67-.14,3.21-1.42,4.9-1.78a13.5,13.5,0,0,1,3.82.26c-.62,1.09-1,2.79-1.9,3.16A37.5,37.5,0,0,1,155.13,64c-6.71.93-13.46,1.78-20.22,2.14-7.69.4-14.57,3.36-21.73,5.65-4.22,1.35-8.93,1.41-13.43,1.54a32,32,0,0,0-14.61,4c-5,2.67-10.62,4.13-16,6.15a14.37,14.37,0,0,0-3.54,1.6C60.88,88.62,55.67,89.17,50,88c-1.2-.25-3.2,0-3.83.83-2,2.58-4.55,2.95-7.37,2.59C36.36,91.07,34,90.49,31.23,90Z"/><path class="cls-4" d="M73.29,259.12C73,256.68,75,255.43,77.55,255c7.62-1.35,15.29-2.45,22.9-3.88,1.87-.35,4.09-1.16,5.23-2.52a12.79,12.79,0,0,1,8.06-4.86c9.71-1.63,18.27-6.25,27.06-10.34a184.08,184.08,0,0,1,41-13.88c3.35-.67,6.43-2.57,9.75-3.52,1.28-.36,2.88.37,4.34.6-.88,1.06-1.56,2.66-2.67,3.08-4.57,1.72-9.29,3-13.91,4.58-12.1,4.13-24.24,8.16-36.24,12.56-7.84,2.87-15.47,6.34-23.23,9.46a14.55,14.55,0,0,1-3.52.58c-3.26.4-6.2,1-8.1,4.34-1.79,3.12-5.22,3.17-8.53,3.62C90.94,256,82.22,257.63,73.29,259.12Z"/><path class="cls-4" d="M62.15,189.72c-2-2-.44-3.79,1.37-4.51a67.83,67.83,0,0,1,10.59-3c4.41-.95,8.9-1.56,13.34-2.38a3.14,3.14,0,0,0,1.88-.94c3-4,7.41-4.16,11.64-4.54,9.35-.83,17.8-4.33,26.32-7.91,4.1-1.72,8.59-2.53,12.93-3.67s9-1.69,13.11-3.39a84.11,84.11,0,0,1,31.8-6.16c.73,0,2,.78,2.06,1.32a2.9,2.9,0,0,1-1.28,2.2,5.39,5.39,0,0,1-2.76.59,80.43,80.43,0,0,0-30.64,6.41c-4.61,1.93-10,2-15,3-2.2.43-4.58.61-6.52,1.6a91.9,91.9,0,0,1-33.78,10.17c-1,.09-2.42.25-3,.92-5,5.72-12,4.43-18.25,5.58a84.55,84.55,0,0,0-8.76,1.63C65.5,187.05,64.1,188.45,62.15,189.72Z"/><path class="cls-4" d="M189.86,174.7c-.65.54-1.22,1.4-2,1.59-5.06,1.29-10.16,2.47-15.26,3.64-4.95,1.15-10,1.87-14.85,3.47-7.47,2.49-14.72,5.62-22.12,8.34a14.86,14.86,0,0,1-5.61,1c-9.91-.41-19.12,1.93-28,6.23a138.66,138.66,0,0,1-19.19,7.83c-6.23,1.92-12.8,2.74-19.25,3.92-.55.1-1.27-.76-1.91-1.18.75-.95,1.32-2.46,2.26-2.74a32.7,32.7,0,0,1,8.44-1.55c6.94-.17,12.81-3.3,19-5.84,12.09-5,24-10.86,37.68-10.21,3.56.17,7.3-1.1,10.77-2.25a108.48,108.48,0,0,0,14.3-5.72A49.91,49.91,0,0,1,172,176.49c4.73-.45,9.37-1.69,14.06-2.52a29.47,29.47,0,0,1,3.53-.23Z"/><path class="cls-5" d="M202,207.28c-11-2.51-20.18,3.25-30,6.22a100.31,100.31,0,0,0-27.28,12.42,13.57,13.57,0,0,1-4.22,1.93c-8.78,2.2-17.57,4.36-26.4,6.38-8.55,2-17.37,3.07-25.64,5.85A74.85,74.85,0,0,1,74.59,243c-1.13.16-2.41-.75-3.63-1.17,1.06-.7,2.07-1.94,3.17-2,9.1-.64,17.67-3.33,26.26-6.17,3.7-1.23,7.64-1.7,11.46-2.61,5.21-1.23,10.34-3.06,15.62-3.73,8.65-1.09,16-5.07,23.55-8.89,6.88-3.47,14.35-5.79,21.62-8.46,5.69-2.08,11.39-4.19,17.22-5.76,2.8-.75,5.95-.47,8.91-.24,1.26.09,2.44,1.25,3.66,1.92Z"/><path class="cls-4" d="M80.05,273.56c.46-1.08.62-2.58,1.44-3.17,2.21-1.58,4.55-3.29,7.11-4,7.07-2.05,14.32-3.5,21.43-5.43,11.85-3.22,23.6-6.86,35.51-9.86,5.74-1.45,11.78-1.72,17.63-2.8a36.92,36.92,0,0,0,9.15-2.75c7.52-3.58,14.84-7.56,22.31-11.26.87-.44,2.13-.09,3.22-.11-.3,1.12-.24,2.65-1,3.27a30.91,30.91,0,0,1-6.23,4.16c-4.28,2.11-8.9,3.6-13,6-6.47,3.71-13.66,3.67-20.62,5.11-12.7,2.62-25.18,6.31-37.75,9.54-2.65.68-5.32,1.3-8,1.95-8.17,2-16.39,3.88-24.5,6.12-2.06.56-3.8,2.3-5.69,3.49Z"/><path class="cls-4" d="M46.4,111.8l-1,4.52c-2.39-7.25-.42-9.24,6.27-7.67,6.44,1.5,12.73,2.22,19.27-.58,4.18-1.79,9.09-1.82,13.58-3q8.63-2.22,17.09-5c14.7-4.84,29.29-10,44.06-14.6,3.52-1.09,7.62-.18,11.41-.61,2.49-.29,4.87-1.42,7.34-2a19,19,0,0,1,3.78-.09c-.57,1-.93,2.24-1.75,2.93a11.8,11.8,0,0,1-9,2.78c-9.63-.82-18.62,2-27.58,5-6.78,2.25-13.63,4.26-20.39,6.55-4.4,1.49-8.6,3.64-13.06,4.88-7.2,2-14.57,3.42-21.83,5.2-3.33.82-6.58,2.66-9.89,2.75C58.66,113,52.63,112.22,46.4,111.8Z"/><path class="cls-6" d="M176.6,103.05c-1.43-.14-3-.69-4.26-.35q-18,4.74-35.91,9.75c-3.78,1-7.45,2.53-11.25,3.42-3.35.78-6.86,1.59-10.22,1.37-12.45-.82-24.44,2.09-36.55,4a13.29,13.29,0,0,0-6.91,3.45C64.22,131.89,55,133.76,45.42,135c-.55.07-1.18-.47-1.77-.72.46-.73.79-1.94,1.4-2.11,2.05-.57,4.29-.51,6.31-1.15C56,129.56,61.55,129,64.82,126c7-6.42,15.22-7.73,23.79-9.43,9.47-1.87,19-1.91,28.51-2.12,3-.07,6-1.18,9-2,11.37-3.1,22.71-6.31,34.08-9.41,4.61-1.26,9.25-2.43,13.93-3.38a4,4,0,0,1,3.4,1.11c.48.69-.27,2.26-.48,3.44Z"/><path class="cls-6" d="M50.91,149.37a14.54,14.54,0,0,1,3.21-2.31c8.37-3.14,16.62-6.4,25.94-6.15,4.24.12,8.71-1.46,12.77-3.06,5.57-2.19,11-4.21,17.07-4.86a27.22,27.22,0,0,0,11.67-4.27c6.82-4.51,14.43-6.24,22.18-7.66,7.94-1.46,15.95-2.67,24-3.65,1.65-.2,3.48,1.09,5.23,1.69l-.2,1.17a17.2,17.2,0,0,0-3.13,0c-13.33,2.49-26.66,5-40,7.63a15.2,15.2,0,0,0-4.78,2.35A40.51,40.51,0,0,1,106,136.56a26.71,26.71,0,0,0-9.11,2.78c-7.49,3.55-15.3,4.82-23.55,5.36-5.81.37-11.47,2.93-17.19,4.54-1.55.43-3.07.92-4.6,1.39Z"/><path class="cls-6" d="M189.6,138.25c-1.29-1-2.41-2.51-3.77-2.78-8-1.56-16-2.11-23,3.39-4.91,3.9-11,4.51-16.62,6.34-9.21,3-18.28,6.42-27.61,8.93-5.23,1.41-10.87,1.28-16.31,2A97.56,97.56,0,0,0,91,157.9a20.59,20.59,0,0,0-7.45,3.25c-5.84,4.42-12.4,7.07-19.36,8.93a21.46,21.46,0,0,1-5.27.78,11.94,11.94,0,0,1-3.35-1,14.6,14.6,0,0,1,3.14-2.1c6.15-2.08,13.23-2.74,18.36-6.26,9.56-6.57,20.09-8.21,30.91-8.81,10-.55,19.22-3.27,28.39-6.89,5.43-2.15,11.16-3.5,16.68-5.43a37.28,37.28,0,0,0,8.42-3.83c7.56-5,15.86-3.75,24-2.94C189.53,134,190.32,135.74,189.6,138.25Z"/></g></g></svg>