<svg xmlns="http://www.w3.org/2000/svg" viewBox="0 0 355.45 285.45"><defs><style>.cls-1{fill:#b47c56;}.cls-2{fill:#fdfdfc;}.cls-3{fill:#b47b55;}.cls-4{fill:#eee2da;}.cls-5{fill:#fdfdfd;}.cls-6{fill:#f6f5f2;}.cls-7{fill:#f4f3ef;}.cls-8{fill:#f5f4f0;}</style></defs><g id="Layer_2" data-name="Layer 2"><g id="icons-howto_Image" data-name="icons-howto Image"><path class="cls-1" d="M355.45,173q-1.24,17.2-2.48,34.4c-1.21,16.64-9.19,29.38-22.26,39.39-20.69,15.86-43.51,27-69.22,31.89a35.68,35.68,0,0,1-10,.22c-12.22-1.18-24.13,1.18-36.11,2.82-9.15,1.25-18.25,3-27.44,3.68-5.9.44-11.92-.7-17.89-1.1-17.81-1.21-35.64-2.2-53.44-3.66-16.09-1.31-31.61-4.54-46.16-12.37-13.06-7-26.87-12.66-40.29-19.05-7.38-3.51-12-9.8-15.59-16.84C8.64,220.77,6.25,208.1,3.3,195.63c-6.83-28.79-2.72-56.55,9.18-83.19,18.41-41.23,47.74-73,87.29-94.38C122.06,6,146.44-.76,172.29.07,186,.51,199,4.77,212.36,7.33c20.88,4,41.38,9.22,60.82,18.17C293.73,35,312.29,46.89,326,65.39c11.29,15.29,18,32.64,22.94,50.82C354,134.8,354.61,153.83,355.45,173Zm-2.94.2c-.75-20.83-1.91-41.46-8-61.57-6.69-22.15-16.24-42.61-33.59-58.5-20.58-18.85-45.64-29.34-72-36.7-15-4.17-30.38-6.86-45.61-10.07-2.15-.45-4.73-2.34-6.68.73-.14.22-1.39,0-1.94-.35-6.39-3.85-13.48-4.24-20.56-3.75-23.28,1.63-45.56,7.66-65.75,19.18-35.58,20.3-62.71,49.05-80.65,86C3.78,136.87-1.11,166.85,7,198.29,9.84,209.53,12,221,17.48,231.43c4.07,7.8,9.71,13.61,18.18,17A202.13,202.13,0,0,1,63,261.17c19.37,11.3,40.29,16.14,62.4,17.22,14.36.7,28.7,1.78,43.05,2.7,6.81.43,13.66,1.59,20.41,1.12,9.53-.66,19-2.42,28.47-3.92,12.58-2,25.18-3.22,37.93-2.32a24.38,24.38,0,0,0,6.44-.37c25.15-5,47.56-16,67.74-31.66,11.58-9,19.18-20.31,20.32-35.34Q351.09,190.87,352.51,173.15Z"/><path class="cls-2" d="M352.51,173.15q-1.39,17.73-2.77,35.45c-1.14,15-8.74,26.32-20.32,35.34-20.18,15.71-42.59,26.64-67.74,31.66a24.38,24.38,0,0,1-6.44.37c-12.75-.9-25.35.33-37.93,2.32-9.47,1.5-18.94,3.26-28.47,3.92-6.75.47-13.6-.69-20.41-1.12-14.35-.92-28.69-2-43.05-2.7-22.11-1.08-43-5.92-62.4-17.22A202.13,202.13,0,0,0,35.66,248.4c-8.47-3.36-14.11-9.17-18.18-17C12,221,9.84,209.53,7,198.29c-8.06-31.44-3.17-61.42,10.76-90.14,17.94-37,45.07-65.73,80.65-86C118.55,10.6,140.83,4.57,164.11,2.94c7.08-.49,14.17-.1,20.56,3.75.55.33,1.8.57,1.94.35,1.95-3.07,4.53-1.18,6.68-.73,15.23,3.21,30.63,5.9,45.61,10.07,26.39,7.36,51.45,17.85,72,36.7,17.35,15.89,26.9,36.35,33.59,58.5C350.6,131.69,351.76,152.32,352.51,173.15ZM89.71,207.68l-.07-.05c-.37,2.34-.82,4.68-1.07,7-.08.84.11,2.31.55,2.48.84.31,2.55.23,2.85-.29,1.12-2,2.36-4.15,2.58-6.34A34.53,34.53,0,0,1,101,193.47c-1.07,5-2.72,9.86-3.76,14.84-.43,2.05.26,6.21.82,6.28,3.66.44,3.14-3,3.77-5.23,1.31-4.6,2.27-9.29,3.65-13.86.68-2.26,1.85-4.47,5.92-4.44-1.14,3-2.07,5.55-3.1,8.08-1.57,3.88-3.36,7.67-4.76,11.61-.64,1.8-.67,3.95,1.81,4.76,2.22.72,3.69-.31,4.58-2.33.34-.77.69-1.53,1-2.31,2.92-7.2,5.81-14.41,8.75-21.6a9.47,9.47,0,0,1,1.13-1.65,10.28,10.28,0,0,1-.67,5.29c-3.61,8.34-7.32,16.64-11,24.93-1.22,2.7-2.79,5.33,0,8.06a48.93,48.93,0,0,0-11.67,19.8c-2.11,7.13-.46,10.52,6.36,13.26,6.13,2.47,12.53,2.94,19,2.74a14.29,14.29,0,0,0,12.09-6.64c1.85-2.79,3.5-5.73,5.36-8.52a19.91,19.91,0,0,0,2.92-15.43,6.2,6.2,0,0,1,.19-1.85l.87-.18a25.87,25.87,0,0,1,.84,3,40.37,40.37,0,0,0,.67,4.95c.28.9,1.53,2.31,2,2.19a4.64,4.64,0,0,0,2.8-2.16c.49-1,.17-2.34.18-3.53,0-3.69,0-7.38,0-11.07a16.6,16.6,0,0,1,.78,6.4c-.07,2.18.12,4.62,2.75,4.48,1.29-.07,3.34-2.15,3.52-3.52a116,116,0,0,0,.49-13.07c0-1.88-1.35-4.16,1.56-5.41a7.71,7.71,0,0,1,.27,1.3c0,2.76-.14,5.52,0,8.27.08,1.72,0,4,1.06,5,.84.83,3.13.17,5.29.17-.63,2.33-1.21,4.61-1.88,6.86-.83,2.79.06,3.84,3,3.37.64-.11,1.28-.26,3-.61-1.79,1.94-2.93,3.09-4,4.32-2.14,2.51-1.62,4.56,1.59,5.24a39,39,0,0,0,16.58,0c3.22-.71,3.65-2.74,1.44-5.26-1.06-1.21-2.15-2.38-3.63-4,7,1.17,6.86-.67,5-5.16-.71-1.68-.76-3.63-1.28-6.32,3.45,3,5.7,2.72,7.19-1.74.57,3.07.59,5.44,1.51,7.38.67,1.42,2.54,2.28,3.87,3.38.81-1.39,2.06-2.71,2.34-4.2a35.94,35.94,0,0,0,.11-6.65A1.56,1.56,0,0,1,202,224c0,4.07-.19,8.17.14,12.22.09,1.11,1.75,2.1,2.7,3.14.82-.93,2-1.73,2.39-2.82.47-1.29.2-2.84.42-4.25a26.8,26.8,0,0,1,.91-3.23l1.2.25c-.12.94-.24,1.89-.37,2.83-.58,4.25-.35,8.43,1.86,12.21,2.3,3.93,4.71,7.8,7.27,11.56,2.28,3.35,5.74,5.63,9.64,5.55a89.45,89.45,0,0,0,19.15-2c7.88-1.91,11.22-5.18,7.28-15.44-2.53-6.58-6.71-12.53-10.21-18.87,3.51-4.56-2.84-8.12-2.7-13.21,1.07,1.32,1.63,2.56,2.56,3s2.84.81,3.63.26,1.8-2.56,1.48-3.53c-1.37-4.31-3.17-8.48-4.83-12.69-1-2.47-2-4.92-3.09-7.7,3.58.22,4.8,1,5.79,4.08,1.4,4.45,2.43,9,3.64,13.51a19.65,19.65,0,0,0,1.4,4.42c.41.75,1.64,1.06,2.5,1.57.4-.77,1.18-1.57,1.12-2.29a52.76,52.76,0,0,0-1.19-8.13c-.9-3.67-2.14-7.25-3.23-10.87a32.09,32.09,0,0,1,6.68,15.94c.23,1.88.24,4,1.17,5.52.77,1.24,2.75,1.73,4.2,2.55.13-1.26.26-2.52.38-3.78,0-.36,0-.72.06-1.08a4.62,4.62,0,0,0,.65-.07c1.83,2.64,3.7,5.24,5.47,7.91,3.79,5.68,9.24,8.54,15.86,9.37,9.35,1.19,18.37-.38,27.19-3.41,6.34-2.17,11.31-8.59,11-14.55-.39-6.89-3-12.75-8.6-17.09-4.41-3.41-8.89-6.48-15.28-5a6.77,6.77,0,0,1,3.07-3.06c1.73-.64,2-1.26,1.54-3.15a12.17,12.17,0,0,0-7.22-8.55c1.33-4,.31-6.61-3.23-8.45-1.7-.88-3.6-1.35-5.28-2.24a12.1,12.1,0,0,1-2.39-2.26l.57-.75c.88.23,1.75.47,2.63.69,7.66,1.94,15.73-1.84,18.55-9.13a51.93,51.93,0,0,0,2.45-10.45c1.6-9.87,2.66-19.75-1.77-29.26-1.76-3.8-3.82-4.68-7.47-2.83-7.4,3.76-13.86,8.59-17.52,16.39-.49,1-1.11,2-1.43,2.6-2.05-1.35-3.74-3.23-5.65-3.5s-4.1,1-7,1.92c1.37-1.46,2.47-2.24,3-3.31,1.16-2.29,2.64-4.66,2.89-7.11.58-5.74-.62-6.53-5.88-5.59-1.21-1-2.72-2.29-3.91-2-2.34.5-4.48,1.91-6.75,2.81a27.29,27.29,0,0,1-4.35,1.23c-.17,0-.81-1.27-.76-1.31a18.32,18.32,0,0,1,3.38-2.17c5.31-2.24,10.68-4.62,11.07-11.37.61-10.45.09-20.89-3.56-30.82-3.19-8.68-13.31-10-19.12-2.7-3,3.83-5.28,8-4.65,13.17.17,1.41-.42,2.92-.67,4.39l-1.44-.17c0-2,0-3.92,0-5.88s-.16-4-2.92-4-3.24,1.87-3.45,4c-.25,2.62-.42,5.26-.91,7.84a13.93,13.93,0,0,1-1.74,3.44L229.4,88c.33-2.79.87-5.58.92-8.37,0-2.12.72-5.24-2.34-5.5-1.07-.09-2.87,2.7-3.51,4.47-1.8,4.94-3.12,10-4.75,15a24.34,24.34,0,0,1-2,3.76,5.27,5.27,0,0,1-.51-3.83c1.58-5,3.3-10,5-15,.65-1.91,1.5-3.77,2-5.72.19-.68-.11-2-.58-2.22a3.27,3.27,0,0,0-2.59.17,17.94,17.94,0,0,0-8.1,9.29,28.79,28.79,0,0,1-3,6.1c-.81,1.11-2.53,1.56-3.84,2.31l-1.27-1.29c1.19-2.51,2-5.31,3.64-7.46,2.6-3.39,5.93-6.22,8.58-9.58.87-1.11.57-3.15.8-4.76-1.65.14-3.73-.28-4.87.56-1.75,1.29-2.75,3.56-4.28,5.22a45,45,0,0,1-4.25,3.64l-1-.7a20.13,20.13,0,0,1,.3-4.06,17.49,17.49,0,0,1,7.65-10.06c5.29-3.41,6.13-8.18,2.08-13a18.42,18.42,0,0,0-6.11-4.78,18.19,18.19,0,0,0-7.59-1.61c-8.25.06-16.48.71-24.73.72-7.76,0-15.52-.75-23.28-.65a19.15,19.15,0,0,0-8.44,2.53c-5.31,2.89-7.72,9-5.38,13.21.91,1.66,2.74,2.89,4.33,4.07,4.9,3.61,7.82,9.54,6.17,14.53-2-2-3.57-3.73-5.26-5.36A37.79,37.79,0,0,0,138,65.1a3.22,3.22,0,0,0-3.12.65,3.48,3.48,0,0,0,.07,3.24c1.26,1.85,3.09,3.31,4.45,5.11,2.66,3.5,5.24,7.06,7.61,10.76.41.64-.39,2.06-.64,3.12-1-.44-2.45-.59-2.95-1.36C142,84.53,141.34,82,139.89,80a91.44,91.44,0,0,0-7.58-8.87c-.57-.61-2.48-1-2.82-.58a4,4,0,0,0-.78,3.13,34.58,34.58,0,0,0,2.18,5.3,55.72,55.72,0,0,1,4.71,18.17,4.27,4.27,0,0,1-1.85-2c-1.1-2.91-2.14-5.85-3.08-8.81-1-3.31-1.79-6.72-3-10-.41-1-2-1.66-3-2.48-.65,1-1.68,2-1.88,3.12a21.52,21.52,0,0,0,0,5.38c.17,1.9.56,3.78.85,5.68l-1.28.42a16.18,16.18,0,0,1-1.67-3.81c-.45-2.59-.53-5.24-.76-7.86-.19-2-.61-3.84-3.26-3.83s-3.12,1.76-3.16,3.85,0,4.1,0,6.14l-1.41.12c-.25-1.63-.83-3.3-.68-4.89.44-4.5-1.39-8.16-3.77-11.71-3.18-4.76-8-6.2-13.2-5.51-4.24.58-6.43,4.41-7.08,8.21-1.48,8.68-2.59,17.44-3.4,26.21-.6,6.53,2.34,11.35,8.6,13.87a31.87,31.87,0,0,1,4.29,1.81c.73.42,1.14,1.4,1.69,2.13-.94.23-2.09.9-2.79.59a51.71,51.71,0,0,1-4.86-3c-3.59-2.17-6.65-1.43-8,1.87-5-1.92-6.14-1-6.11,4.31,0,4.42,2.5,7.33,5.63,10,1.23,1,2.33,2.19,3.49,3.3l-.51,1c-4.83-3.06-9.43-9.36-14.94-1.18a10.86,10.86,0,0,1-.9-1.44c-3.33-8.41-9.86-13.66-17.56-17.75-4.14-2.2-6.58-1.58-8.24,2.85a49.41,49.41,0,0,0-2.82,11.74c-1,8.32,1,16.38,2.68,24.49,1.55,7.55,9.69,13.92,17.29,12.68,1.64-.27,3.26-.66,4.89-1l.46,1.24c-1.88,1-3.69,2.06-5.64,2.84-4.76,1.9-6.49,4.78-5.42,9.67a11.1,11.1,0,0,0-7,8.32c-.35,1.67-.48,2.61,1.47,3.26,1.17.4,2.06,1.62,3.08,2.46l-.62.89c-8.77-1.79-14.51,3.43-18.87,9.37-8.4,11.47-4.48,24,9.25,27.88a66.13,66.13,0,0,0,20.88,2.82c8.55-.34,15.69-3.28,20.14-11C85.64,215.45,87.63,211.54,89.71,207.68Z"/><path class="cls-3" d="M264,212.72c0,.36,0,.72-.06,1.08-.12,1.26-.25,2.52-.38,3.78-1.45-.82-3.43-1.31-4.2-2.55-.93-1.51-.94-3.64-1.17-5.52a32.09,32.09,0,0,0-6.68-15.94c1.09,3.62,2.33,7.2,3.23,10.87a52.76,52.76,0,0,1,1.19,8.13c.06.72-.72,1.52-1.12,2.29-.86-.51-2.09-.82-2.5-1.57a19.65,19.65,0,0,1-1.4-4.42c-1.21-4.5-2.24-9.06-3.64-13.51-1-3.12-2.21-3.86-5.79-4.08,1.12,2.78,2.11,5.23,3.09,7.7,1.66,4.21,3.46,8.38,4.83,12.69.32,1-.57,2.87-1.48,3.53s-2.56.24-3.63-.26-1.49-1.68-2.56-3c-.14,5.09,6.21,8.65,2.7,13.21,3.5,6.34,7.68,12.29,10.21,18.87,3.94,10.26.6,13.53-7.28,15.44a89.45,89.45,0,0,1-19.15,2c-3.9.08-7.36-2.2-9.64-5.55-2.56-3.76-5-7.63-7.27-11.56-2.21-3.78-2.44-8-1.86-12.21.13-.94.25-1.89.37-2.83l-1.2-.25a26.8,26.8,0,0,0-.91,3.23c-.22,1.41.05,3-.42,4.25-.4,1.09-1.57,1.89-2.39,2.82-.95-1-2.61-2-2.7-3.14-.33-4.05-.13-8.15-.14-12.22a1.56,1.56,0,0,0-.74-1.41,35.94,35.94,0,0,1-.11,6.65c-.28,1.49-1.53,2.81-2.34,4.2-1.33-1.1-3.2-2-3.87-3.38-.92-1.94-.94-4.31-1.51-7.38-1.49,4.46-3.74,4.72-7.19,1.74.52,2.69.57,4.64,1.28,6.32,1.9,4.49,2.06,6.33-5,5.16,1.48,1.62,2.57,2.79,3.63,4,2.21,2.52,1.78,4.55-1.44,5.26a39,39,0,0,1-16.58,0c-3.21-.68-3.73-2.73-1.59-5.24,1-1.23,2.19-2.38,4-4.32-1.71.35-2.35.5-3,.61-2.89.47-3.78-.58-3-3.37.67-2.25,1.25-4.53,1.88-6.86-2.16,0-4.45.66-5.29-.17-1-1-1-3.23-1.06-5-.14-2.75,0-5.51,0-8.27a7.71,7.71,0,0,0-.27-1.3c-2.91,1.25-1.52,3.53-1.56,5.41a116,116,0,0,1-.49,13.07c-.18,1.37-2.23,3.45-3.52,3.52-2.63.14-2.82-2.3-2.75-4.48a16.6,16.6,0,0,0-.78-6.4c0,3.69,0,7.38,0,11.07,0,1.19.31,2.57-.18,3.53a4.64,4.64,0,0,1-2.8,2.16c-.5.12-1.75-1.29-2-2.19a40.37,40.37,0,0,1-.67-4.95,25.87,25.87,0,0,0-.84-3l-.87.18a6.2,6.2,0,0,0-.19,1.85,19.91,19.91,0,0,1-2.92,15.43c-1.86,2.79-3.51,5.73-5.36,8.52a14.29,14.29,0,0,1-12.09,6.64c-6.51.2-12.91-.27-19-2.74-6.82-2.74-8.47-6.13-6.36-13.26a48.93,48.93,0,0,1,11.67-19.8c-2.81-2.73-1.24-5.36,0-8.06,3.72-8.29,7.43-16.59,11-24.93a10.28,10.28,0,0,0,.67-5.29,9.47,9.47,0,0,0-1.13,1.65c-2.94,7.19-5.83,14.4-8.75,21.6-.31.78-.66,1.54-1,2.31-.89,2-2.36,3-4.58,2.33-2.48-.81-2.45-3-1.81-4.76,1.4-3.94,3.19-7.73,4.76-11.61,1-2.53,2-5.1,3.1-8.08-4.07,0-5.24,2.18-5.92,4.44-1.38,4.57-2.34,9.26-3.65,13.86-.63,2.2-.11,5.67-3.77,5.23-.56-.07-1.25-4.23-.82-6.28,1-5,2.69-9.83,3.76-14.84a34.53,34.53,0,0,0-6.44,17.05c-.22,2.19-1.46,4.36-2.58,6.34-.3.52-2,.6-2.85.29-.44-.17-.63-1.64-.55-2.48.25-2.36.7-4.7,1.07-7l1.12-1.84c1-2.32,2.58-4.55,2-7.16l-1.44-.29-1.14,7c-.17.79-.34,1.57-.5,2.35-2.08,3.86-4.07,7.77-6.25,11.56-4.45,7.75-11.59,10.69-20.14,11a66.13,66.13,0,0,1-20.88-2.82c-13.73-3.92-17.65-16.41-9.25-27.88,4.36-5.94,10.1-11.16,18.87-9.37l.62-.89c-1-.84-1.91-2.06-3.08-2.46-2-.65-1.82-1.59-1.47-3.26a11.1,11.1,0,0,1,7-8.32c-1.07-4.89.66-7.77,5.42-9.67,1.95-.78,3.76-1.88,5.64-2.84l-.46-1.24c-1.63.34-3.25.73-4.89,1-7.6,1.24-15.74-5.13-17.29-12.68-1.66-8.11-3.63-16.17-2.68-24.49a49.41,49.41,0,0,1,2.82-11.74c1.66-4.43,4.1-5,8.24-2.85,7.7,4.09,14.23,9.34,17.56,17.75a10.86,10.86,0,0,0,.9,1.44c5.51-8.18,10.11-1.88,14.94,1.18l.51-1c-1.16-1.11-2.26-2.28-3.49-3.3-3.13-2.62-5.62-5.53-5.63-10,0-5.34,1.16-6.23,6.11-4.31,1.4-3.3,4.46-4,8-1.87a51.71,51.71,0,0,0,4.86,3c.7.31,1.85-.36,2.79-.59-.55-.73-1-1.71-1.69-2.13a31.87,31.87,0,0,0-4.29-1.81c-6.26-2.52-9.2-7.34-8.6-13.87.81-8.77,1.92-17.53,3.4-26.21.65-3.8,2.84-7.63,7.08-8.21,5.17-.69,10,.75,13.2,5.51,2.38,3.55,4.21,7.21,3.77,11.71-.15,1.59.43,3.26.68,4.89l1.41-.12c0-2,0-4.09,0-6.14S114,73,116.64,73s3.07,1.79,3.26,3.83c.23,2.62.31,5.27.76,7.86a16.18,16.18,0,0,0,1.67,3.81l1.28-.42c-.29-1.9-.68-3.78-.85-5.68a21.52,21.52,0,0,1,0-5.38c.2-1.11,1.23-2.08,1.88-3.12,1,.82,2.59,1.43,3,2.48,1.24,3.23,2,6.64,3,10,.94,3,2,5.9,3.08,8.81a4.27,4.27,0,0,0,1.85,2A55.72,55.72,0,0,0,130.89,79a34.58,34.58,0,0,1-2.18-5.3,4,4,0,0,1,.78-3.13c.34-.38,2.25,0,2.82.58A91.44,91.44,0,0,1,139.89,80c1.45,2,2.14,4.55,3.51,6.64.5.77,1.94.92,2.95,1.36.25-1.06,1.05-2.48.64-3.12-2.37-3.7-5-7.26-7.61-10.76-1.36-1.8-3.19-3.26-4.45-5.11a3.48,3.48,0,0,1-.07-3.24A3.22,3.22,0,0,1,138,65.1a37.79,37.79,0,0,1,5.21,4.61c1.69,1.63,3.3,3.35,5.26,5.36,1.65-5-1.27-10.92-6.17-14.53-1.59-1.18-3.42-2.41-4.33-4.07-2.34-4.25.07-10.32,5.38-13.21a19.15,19.15,0,0,1,8.44-2.53c7.76-.1,15.52.66,23.28.65,8.25,0,16.48-.66,24.73-.72a18.19,18.19,0,0,1,7.59,1.61,18.42,18.42,0,0,1,6.11,4.78c4.05,4.82,3.21,9.59-2.08,13a17.49,17.49,0,0,0-7.65,10.06,20.13,20.13,0,0,0-.3,4.06l1,.7a45,45,0,0,0,4.25-3.64c1.53-1.66,2.53-3.93,4.28-5.22,1.14-.84,3.22-.42,4.87-.56-.23,1.61.07,3.65-.8,4.76-2.65,3.36-6,6.19-8.58,9.58-1.65,2.15-2.45,4.95-3.64,7.46l1.27,1.29c1.31-.75,3-1.2,3.84-2.31a28.79,28.79,0,0,0,3-6.1,17.94,17.94,0,0,1,8.1-9.29,3.27,3.27,0,0,1,2.59-.17c.47.22.77,1.54.58,2.22-.53,2-1.38,3.81-2,5.72-1.7,5-3.42,9.94-5,15a5.27,5.27,0,0,0,.51,3.83,24.34,24.34,0,0,0,2-3.76c1.63-5,2.95-10.11,4.75-15,.64-1.77,2.44-4.56,3.51-4.47,3.06.26,2.38,3.38,2.34,5.5,0,2.79-.59,5.58-.92,8.37l.88.33A13.93,13.93,0,0,0,232,84.87c.49-2.58.66-5.22.91-7.84.21-2.18.61-4.12,3.45-4s2.88,2,2.92,4,0,3.92,0,5.88l1.44.17c.25-1.47.84-3,.67-4.39-.63-5.22,1.6-9.34,4.65-13.17,5.81-7.3,15.93-6,19.12,2.7,3.65,9.93,4.17,20.37,3.56,30.82-.39,6.75-5.76,9.13-11.07,11.37a18.32,18.32,0,0,0-3.38,2.17c-.05,0,.59,1.34.76,1.31a27.29,27.29,0,0,0,4.35-1.23c2.27-.9,4.41-2.31,6.75-2.81,1.19-.25,2.7,1,3.91,2,5.26-.94,6.46-.15,5.88,5.59-.25,2.45-1.73,4.82-2.89,7.11-.54,1.07-1.64,1.85-3,3.31,2.92-.88,5.09-2.2,7-1.92s3.6,2.15,5.65,3.5c.32-.58.94-1.56,1.43-2.6,3.66-7.8,10.12-12.63,17.52-16.39,3.65-1.85,5.71-1,7.47,2.83,4.43,9.51,3.37,19.39,1.77,29.26A51.93,51.93,0,0,1,308.46,153c-2.82,7.29-10.89,11.07-18.55,9.13-.88-.22-1.75-.46-2.63-.69l-.57.75a12.1,12.1,0,0,0,2.39,2.26c1.68.89,3.58,1.36,5.28,2.24,3.54,1.84,4.56,4.49,3.23,8.45a12.17,12.17,0,0,1,7.22,8.55c.5,1.89.19,2.51-1.54,3.15a6.77,6.77,0,0,0-3.07,3.06c6.39-1.51,10.87,1.56,15.28,5,5.61,4.34,8.21,10.2,8.6,17.09.34,6-4.63,12.38-11,14.55-8.82,3-17.84,4.6-27.19,3.41-6.62-.83-12.07-3.69-15.86-9.37-1.77-2.67-3.64-5.27-5.47-7.91-.51-1.65-1-3.31-1.54-5-.74-3.14.05-6.72-2.69-9.27-.69,3.55.95,6.41,2.75,9.22C263.4,209.34,263.68,211,264,212.72ZM87.51,116.27a1.67,1.67,0,0,0-.17-.26s-.13,0-.2,0l.41.24.41.43Zm3.27-1.08,1.15.15-.56-.78-.82-.62L89.27,113l-.93-.18.43.71c.41.33.82.67,1.23,1Zm172.74-2.14-1,1.07,1.52-.54c.13-.24.27-.48.41-.72Zm1,4c-3.34,2.11-6.85,4-8.11,8.51,1.86-.15,3.93-.45,4.81-1.64,1.48-2,2.2-4.59,3.25-6.93l.43-.21c-.07,0-.18,0-.21,0A1.17,1.17,0,0,0,264.56,117Zm26.64,55.35.25.35c0-.06,0-.15,0-.18s-.18-.08-.26-.12a55.77,55.77,0,0,0-13-9.35C280,168.64,286.11,172.61,291.2,172.35ZM75.36,129.12l-.37-.51.08.8c2.4,5.64,5.55,10.59,11.53,13C84.48,136.55,79.4,133.29,75.36,129.12ZM184.25,232.51l.92.56c-.07-.4-.15-.8-.22-1.2-.83-6.28-1.61-12.57-2.51-18.83-.32-2.24-1.11-4.41-1.36-6.64s.4-3.86,3-3.88,3.61,1.24,3.51,3.81a103.49,103.49,0,0,0,0,11.14c.14,2,1.09,4,1.68,6.05l1-.26c0-3.44,0-6.87,0-10.3,0-1.92-.1-4.41,2.54-4.31a4.05,4.05,0,0,1,4.07,4.56c-.09,1.91-.29,3.81-.5,5.71-.45,4.06-.65,8.06,1.87,11.59.45-3,.3-6,.85-8.85.22-1.14,2-2,3.07-2.94.81,1.13,2.11,2.19,2.3,3.43a37.79,37.79,0,0,1,.11,6.38c2.07-.69,4-2.07,5.69-1.75,2.67.51,1.9,3.15,1.63,5.12-.73,5.19,0,10,3.28,14.29a66.29,66.29,0,0,1,4.42,7,11.65,11.65,0,0,0,9.28,6.07A41.38,41.38,0,0,0,250,255.9c2.93-1.33,4-3.54,3.49-6.7a37.43,37.43,0,0,0-8-17.07c-2.16-2.72-4.55-5.29-6.45-8.18-2-3.08-1.46-4.6,1.82-6.4-3.54-7.83-7.19-15.64-10.54-23.57a24.54,24.54,0,0,1-1.38-7.33c-.08-.83.75-2.39,1.36-2.5a5.17,5.17,0,0,1,3.19,1,4.46,4.46,0,0,1,1.34,2.09c3.16,7.61,6.26,15.25,9.42,22.87.45,1.1,1.1,2.11,1.65,3.16l1.07-.38a17.22,17.22,0,0,0-.74-3.78c-2-4.62-4.4-9.07-6.08-13.79-.67-1.87.17-4.27.32-6.43l6,.69c.21,0,.43-.06.21,0l2.28-3.57a15.74,15.74,0,0,1,3.12,2.63c1.79,2.5,3.33,5.19,4.94,7.77,4.52-1.78,7.13-.12,7.46,4.45.45,6.16,3.07,11.45,6.37,16.56a21.15,21.15,0,0,0,15.76,10.12c9.52,1.22,18.63-.67,27.38-4.25a11.46,11.46,0,0,0,7.18-9.31c1.06-8.58-3.47-14.48-10.27-19.15-5.44-3.74-10.35-2.43-15.34.76-2.73,1.74-5.77,2.76-8.86,1.34-1.12-.52-2.54-2.37-2.34-3.28.28-1.25,1.8-2.56,3.1-3.16s2.85-.07,4.26-.31c2-.32,3.89-.89,5.83-1.35l-.21-1.28c-5.19,0-10.39.16-15.57-.07a11.88,11.88,0,0,1-6-1.7,6.88,6.88,0,0,1-2.48-4.71c-.06-1.13,1.72-2.38,2.74-3.64-1.13-.86-2.87-1.7-3.9-3.07s-1.53-3.44-2.25-5.19c1.52-.61,3-1.28,4.57-1.81a3.6,3.6,0,0,1,1.38,0c.31-2,.29-5.17.91-5.3,2.2-.46,4.62.09,7.18.27,1.63-4.17,1.63-4.17,6.66-2.58,6,1.91,14-2.27,15.65-8.54a88.57,88.57,0,0,0,3.05-15.47c.57-7.13,1.06-14.4-2.41-21.16-1.09-2.13-2.41-2.8-4.58-1.6-6,3.34-11.92,6.88-14.95,13.48-1.73,3.78-3.23,7.69-4.62,11.62-2.26,6.39-4.69,7.5-10.49,4.51-6.65,4-8.51,3.67-9.66-1.86a36.85,36.85,0,0,1-4.08,2.21c-3.12,1.25-6.81.36-7.73-1.71-1.15-2.6.43-6.83,3.22-8.4a5.73,5.73,0,0,1,2.33-.88c6.34-.41,10.14-5,14.42-8.75,2.49-2.17,3.21-5.11,1.81-9.67-2.67,2.92-4.87,5.11-6.81,7.51-1.19,1.47-1.82,3.39-3,4.87-2,2.54-6.2,3.18-8,1.16-2.48-2.8-.31-4.83,1.61-6.7,1.77-1.74,3.65-3.36,6.14-5.64-3.07.8-5.09,1.65-7.15,1.74-1.16,0-3.12-.9-3.41-1.82a7,7,0,0,1,.57-4.7c.39-.82,2-1.11,3.08-1.53,4.88-1.89,10.08-3.64,10.57-9.91.82-10.47-.05-20.85-4-30.67-.76-1.87-3.24-4.1-5.11-4.27a10.61,10.61,0,0,0-10.16,4.83c-2.5,3.6-3,7.46-3.14,11.56-.1,2.68-.15,5.9-3.78,5.73s-3.34-3.42-3.36-6.09c0-1.08-.1-2.16-.14-3.23a13.87,13.87,0,0,0-1.44,4.84c-.53,2.55-.78,5.32-2,7.51-.69,1.24-3.09,1.53-4.72,2.24-.52-1.51-1.46-3-1.46-4.53a46.67,46.67,0,0,1,1-7.08,3.09,3.09,0,0,0-1.68,2c-1.75,5.09-3.45,10.2-5.26,15.27-.79,2.19-2.31,4.16-4.77,3-1-.47-1.67-3.11-1.35-4.49,1.34-5.68,3.1-11.27,4.74-16.88.33-1.14.83-2.23,1.25-3.34l-1.19-.62c-1.42,2.11-3,4.15-4.23,6.36s-2.25,4.75-3.5,7.06A5.11,5.11,0,0,1,204.86,90c-2.74-1.23-1.8-4-1.18-6.08.74-2.45,2.22-4.68,3.4-7-6.47-.55-8-2.65-5.22-8.53a32.18,32.18,0,0,1,7.76-10c4.27-3.74,5-6.12,1.29-10.44a11.12,11.12,0,0,0-4.81-3.55c-9.15-2.56-18.39-2.12-27.61-.13a11.91,11.91,0,0,1-4,.06c-1.52-.21-3-1-4.48-1.08-6.23-.21-12.47-.5-18.69-.22a12.64,12.64,0,0,0-9.78,5.36c-3.05,4.14-2.77,6.73,1.49,9.57a21.14,21.14,0,0,1,8.24,10.58c2.19,5.84.92,7.83-5.12,8.39a73.78,73.78,0,0,1,3.34,8.55c1,3.76-.79,5.63-4.58,4.87a7.41,7.41,0,0,1-4.12-3c-1.51-2.27-2.33-5-3.69-7.37a45.57,45.57,0,0,0-3.5-4.74l-1,.67c.44,1.18,1,2.34,1.3,3.55,1.52,5.28,3.18,10.53,4.35,15.89.29,1.3-1.07,3-1.68,4.47-1.42-.83-3.51-1.31-4.15-2.55a78.67,78.67,0,0,1-3.88-10c-1-2.74-1.8-5.52-2.69-8.29l-.91.24c.4,2.54,1,5.07,1.14,7.62.08,1.26-.45,3.56-1,3.65a6,6,0,0,1-4.47-.91,8.21,8.21,0,0,1-2.11-4.37c-.65-3-.93-6-1.37-9a5.78,5.78,0,0,0-.88,3.18c-.2,2.69.3,6.31-3.61,6.22S109,82,109.07,79.3a17.9,17.9,0,0,0-3.52-11.43,9.57,9.57,0,0,0-10-4.25c-2.26.5-5,3.75-5.53,6.2a220.65,220.65,0,0,0-3.74,24c-.74,6.75,2.23,11.6,8.91,13.8,1,.33,2,.73,3.07,1,2.71.66,3.22,2.62,2.91,5-.36,2.71-2.4,3-4.56,2.89a36.2,36.2,0,0,1-4.2-.82,27.66,27.66,0,0,0,4.22,4.55c2.65,2.58,3.15,5.25,1.37,6.87s-5.84,1.41-7.8-.94a35.46,35.46,0,0,1-3.35-5.49c-1.61-2.85-3.66-5.08-7-6.1-.66,4.7-.1,6.77,3,9.39,4.25,3.58,8.11,7.74,14.33,8.2,2.82.21,4.63,2.58,4.8,5.51.08,1.53-.31,4.29-1,4.45a22.23,22.23,0,0,1-7.51.2c-1.23-.14-2.35-1.23-3.1-1.65-.83,1.63-1.61,4.05-2.12,4a71.32,71.32,0,0,1-9-2c-2,2.71-5.46,2.61-7.7-1.31a21.81,21.81,0,0,1-2-5.34,34.05,34.05,0,0,0-19-23c-2.22-1.07-3.8-.66-4.54,1.62a49.44,49.44,0,0,0-2.48,9.29c-1.12,9.31.57,18.39,3,27.34,1.67,6.13,9.72,10.43,15.69,8.54,5.14-1.64,5.14-1.64,6.88,3.27,7-3,7.85-2.57,7.75,4.08a6.79,6.79,0,0,1,1.35.22c1.64.62,3.25,1.29,4.88,1.93a31.14,31.14,0,0,1-2.71,5.38c-1,1.33-2.65,2.16-4.17,3.34,3.67,1.2,4.82,4.16,2.31,6.45a12.4,12.4,0,0,1-6.92,3c-5.37.43-10.81.13-16.22.13-.05.37-.11.74-.17,1.11a20.83,20.83,0,0,0,3.44,1.1c2.13.31,4.41,0,6.4.7a5.67,5.67,0,0,1,3.39,3.26c.21.92-1.65,3.28-2.68,3.33a25.47,25.47,0,0,1-7.89-1.15c-1.56-.42-2.86-1.74-4.4-2.38-6.88-2.87-12.93.29-18.76,8.26-7.14,9.78-2.93,20.35,8.81,23.13a124.31,124.31,0,0,0,17.27,2.81c17.2,1.6,25.55-14,27.55-26.08.3-1.85,1-4.13,2.29-5.19,1.17-.93,3.49-.43,5.72-.6,1.13-1.91,2.47-4.47,4.1-6.82a19.32,19.32,0,0,1,3.29-3l2.06,2.93h6.85c-.07,2.51,0,5-.27,7.51a9,9,0,0,1-1.16,2.62c-1.51,3.26-3.1,6.48-4.48,9.79a16.15,16.15,0,0,0-.63,3.79l1.06.29c.58-1.2,1.22-2.38,1.73-3.61,3-7.32,5.74-14.72,9-21.92.72-1.59,3-2.47,4.62-3.67.51,1.82,1.82,3.85,1.4,5.41a103.42,103.42,0,0,1-4.74,12.75c-2.18,5.17-4.58,10.24-7,15.57,3.84,1.39,3.34,3.88,1.82,6.17-1.92,2.88-4.27,5.47-6.38,8.22-4,5.19-7.21,10.71-8.06,17.38-.45,3.53.93,5.65,4.17,7a40.4,40.4,0,0,0,19.69,3c2.47-.24,5.68-1.21,7.06-3,5-6.56,11-12.85,10.65-22.08-.07-1.43-.54-2.9-.32-4.27.18-1.11.89-2.64,1.77-3s2.47.17,3.56.69c.73.35,1.14,1.35,1.69,2.07.77-2.71.59-5.32.86-7.89.11-1,1.21-2,1.86-2.94,1,.69,2.5,1.16,3,2.13a11.52,11.52,0,0,1,.72,4.54c.06,1.69-.14,3.38-.22,5.06l1.22.23c.49-2.07,1.35-4.14,1.37-6.21,0-3.69-.43-7.38-.7-11.08a4.13,4.13,0,0,1,3.86-4.77c2.91-.22,2.65,2.47,2.67,4.48.05,3.38,0,6.76,0,10.13l1.14.2c.55-1.73,1.44-3.43,1.59-5.2.27-3.33,0-6.71.23-10a12.84,12.84,0,0,1,1.63-5.37c.31-.52,3.28-.36,3.5.15a23.61,23.61,0,0,1,1.1,5.69c0,.21-.17.44-.21.68-1.29,7.61-2.57,15.23-3.92,23.28,3.84-2.09,5.08-1.46,4.89,2.19a10.66,10.66,0,0,1-1.8,4.45,22.45,22.45,0,0,1-2.95,3.2h17.52c-1.4-1.49-2.6-2.3-3.09-3.42a12.69,12.69,0,0,1-1.43-5.61C180.79,230.93,182.26,230.08,184.25,232.51ZM85.89,131c2.17,6,8.73,10.53,14.6,8.93-1.14-1.9-1.76-4.38-3.23-5.08C93.64,133.11,89.63,132.2,85.89,131Zm167.48,9.39c5.2.65,11.41-3.85,12.68-8.85a69.33,69.33,0,0,1-8.22,2.56C254.12,134.8,252.94,136.11,253.37,140.39Zm33.36,37.44c-3.83-5.38-10.41-8.88-14.29-7.6C274.09,174.53,281.48,178.46,286.73,177.83Zm-206-8.12c-6.88-.17-10.51,4.26-15,8.09C71.57,178.2,78.23,174.68,80.71,169.71Zm212.74,14.57-18-3.69C276.6,185.9,280.77,185.63,293.45,184.28ZM77.51,180.51l-17.25,3.76c.06.3.13.6.19.9C71.41,185.25,75.55,186.46,77.51,180.51Zm187.9-38.88,1,1c4.3-1.37,11-9.55,11.39-14.2Zm-24.6,69.8,1.22-.61q-5-11.85-9.95-23.72l-.85.34C232.25,196.29,237.93,203.31,240.81,211.43ZM74.38,164.2l-.76-.93L61.76,172C66.86,172.43,72.38,168.72,74.38,164.2Zm22.11-39,.79-1.08-8.27-7C90.44,124.44,92.28,126.15,96.49,125.23Zm203.25,56.05.87-1.81-12-5.31L287.8,176Zm-247.52-1.7c.22.41.44.83.67,1.24,4.11-1.19,8.58-1.64,11.38-5.5-.16-.34-.32-.69-.49-1ZM194.79,212l-1.7-.25v8.68l.77,0ZM65.69,194.89c.06-.61.13-1.21.2-1.81H58.53l-.15.88Zm228.74-1.11c-.07-.39-.15-.78-.22-1.17-2.4.34-5.15-1.05-7.22,1l.27,1.46Zm-25.34-64c-.17-.23-.35-.45-.52-.67l-1.36,1.16.45.55Zm-179.59,10-.21-.24c-.08.08-.21.15-.21.23s.13.16.2.24Zm43.25-64.8c-.07-.08-.14-.22-.21-.23s-.17.12-.25.19l.32.25Z"/><path class="cls-4" d="M264,212.72c-.28-1.69-.56-3.38-.83-5.08l-.06.05,1.54,5A4.62,4.62,0,0,1,264,212.72Z"/><path class="cls-5" d="M184.25,232.52c-2-2.44-3.46-1.59-3.64,1a12.69,12.69,0,0,0,1.43,5.61c.49,1.12,1.69,1.93,3.09,3.42H167.61a22.45,22.45,0,0,0,2.95-3.2,10.66,10.66,0,0,0,1.8-4.45c.19-3.65-1.05-4.28-4.89-2.19,1.35-8.05,2.63-15.67,3.92-23.28,0-.24.24-.47.21-.68a23.61,23.61,0,0,0-1.1-5.69c-.22-.51-3.19-.67-3.5-.15a12.84,12.84,0,0,0-1.63,5.37c-.27,3.33,0,6.71-.23,10-.15,1.77-1,3.47-1.59,5.2l-1.14-.2c0-3.37,0-6.75,0-10.13,0-2,.24-4.7-2.67-4.48a4.13,4.13,0,0,0-3.86,4.77c.27,3.7.74,7.39.7,11.08,0,2.07-.88,4.14-1.37,6.21l-1.22-.23c.08-1.68.28-3.37.22-5.06a11.52,11.52,0,0,0-.72-4.54c-.47-1-1.95-1.44-3-2.13-.65,1-1.75,1.9-1.86,2.94-.27,2.57-.09,5.18-.86,7.89-.55-.72-1-1.72-1.69-2.07-1.09-.52-2.6-1.08-3.56-.69s-1.59,1.89-1.77,3c-.22,1.37.25,2.84.32,4.27.39,9.23-5.61,15.52-10.65,22.08-1.38,1.79-4.59,2.76-7.06,3a40.4,40.4,0,0,1-19.69-3c-3.24-1.34-4.62-3.46-4.17-7,.85-6.67,4.08-12.19,8.06-17.38,2.11-2.75,4.46-5.34,6.38-8.22,1.52-2.29,2-4.78-1.82-6.17,2.4-5.33,4.8-10.4,7-15.57a103.42,103.42,0,0,0,4.74-12.75c.42-1.56-.89-3.59-1.4-5.41-1.58,1.2-3.9,2.08-4.62,3.67-3.23,7.2-6,14.6-9,21.92-.51,1.23-1.15,2.41-1.73,3.61l-1.06-.29a16.15,16.15,0,0,1,.63-3.79c1.38-3.31,3-6.53,4.48-9.79a9,9,0,0,0,1.16-2.62c.22-2.49.2-5,.27-7.51h-6.85L103.7,186a19.32,19.32,0,0,0-3.29,3c-1.63,2.35-3,4.91-4.1,6.82-2.23.17-4.55-.33-5.72.6-1.32,1.06-2,3.34-2.29,5.19-2,12.12-10.35,27.68-27.55,26.08a124.31,124.31,0,0,1-17.27-2.81c-11.74-2.78-15.95-13.35-8.81-23.13,5.83-8,11.88-11.13,18.76-8.26,1.54.64,2.84,2,4.4,2.38A25.47,25.47,0,0,0,65.72,197c1-.05,2.89-2.41,2.68-3.33A5.67,5.67,0,0,0,65,190.43c-2-.66-4.27-.39-6.4-.7a20.83,20.83,0,0,1-3.44-1.1c.06-.37.12-.74.17-1.11,5.41,0,10.85.3,16.22-.13a12.4,12.4,0,0,0,6.92-3c2.51-2.29,1.36-5.25-2.31-6.45,1.52-1.18,3.17-2,4.17-3.34a31.14,31.14,0,0,0,2.71-5.38c-1.63-.64-3.24-1.31-4.88-1.93a6.79,6.79,0,0,0-1.35-.22c.1-6.65-.75-7.09-7.75-4.08-1.74-4.91-1.74-4.91-6.88-3.27-6,1.89-14-2.41-15.69-8.54-2.44-9-4.13-18-3-27.34A49.44,49.44,0,0,1,46,114.55c.74-2.28,2.32-2.69,4.54-1.62a34.05,34.05,0,0,1,19,23,21.81,21.81,0,0,0,2,5.34c2.24,3.92,5.68,4,7.7,1.31a71.32,71.32,0,0,0,9,2c.51.05,1.29-2.37,2.12-4,.75.42,1.87,1.51,3.1,1.65a22.23,22.23,0,0,0,7.51-.2c.67-.16,1.06-2.92,1-4.45-.17-2.93-2-5.3-4.8-5.51-6.22-.46-10.08-4.62-14.33-8.2-3.1-2.62-3.66-4.69-3-9.39,3.35,1,5.4,3.25,7,6.1a35.46,35.46,0,0,0,3.35,5.49c2,2.35,5.92,2.66,7.8.94s1.28-4.29-1.37-6.87a27.66,27.66,0,0,1-4.22-4.55,36.2,36.2,0,0,0,4.2.82c2.16.16,4.2-.18,4.56-2.89.31-2.35-.2-4.31-2.91-5-1-.26-2.05-.66-3.07-1-6.68-2.2-9.65-7.05-8.91-13.8a220.65,220.65,0,0,1,3.74-24c.55-2.45,3.27-5.7,5.53-6.2a9.57,9.57,0,0,1,10,4.25,17.9,17.9,0,0,1,3.52,11.43c-.12,2.72-.26,6.27,3.51,6.35s3.41-3.53,3.61-6.22a5.78,5.78,0,0,1,.88-3.18c.44,3,.72,6,1.37,9a8.21,8.21,0,0,0,2.11,4.37,6,6,0,0,0,4.47.91c.55-.09,1.08-2.39,1-3.65-.16-2.55-.74-5.08-1.14-7.62l.91-.24c.89,2.77,1.73,5.55,2.69,8.29a78.67,78.67,0,0,0,3.88,10c.64,1.24,2.73,1.72,4.15,2.55.61-1.5,2-3.17,1.68-4.47C137,90,135.36,84.77,133.84,79.49c-.35-1.21-.86-2.37-1.3-3.55l1-.67a45.57,45.57,0,0,1,3.5,4.74c1.36,2.39,2.18,5.1,3.69,7.37a7.41,7.41,0,0,0,4.12,3c3.79.76,5.55-1.11,4.58-4.87a73.78,73.78,0,0,0-3.34-8.55c6-.56,7.31-2.55,5.12-8.39A21.14,21.14,0,0,0,143,58c-4.26-2.84-4.54-5.43-1.49-9.57A12.64,12.64,0,0,1,151.28,43c6.22-.28,12.46,0,18.69.22,1.5,0,3,.87,4.48,1.08a11.91,11.91,0,0,0,4-.06c9.22-2,18.46-2.43,27.61.13A11.12,11.12,0,0,1,210.91,48c3.75,4.32,3,6.7-1.29,10.44a32.18,32.18,0,0,0-7.76,10c-2.82,5.88-1.25,8,5.22,8.53-1.18,2.37-2.66,4.6-3.4,7-.62,2-1.56,4.85,1.18,6.08a5.11,5.11,0,0,0,7.07-2.38c1.25-2.31,2.2-4.79,3.5-7.06s2.81-4.25,4.23-6.36l1.19.62c-.42,1.11-.92,2.2-1.25,3.34-1.64,5.61-3.4,11.2-4.74,16.88-.32,1.38.37,4,1.35,4.49,2.46,1.19,4-.78,4.77-3,1.81-5.07,3.51-10.18,5.26-15.27a3.09,3.09,0,0,1,1.68-2,46.67,46.67,0,0,0-1,7.08c0,1.51.94,3,1.46,4.53,1.63-.71,4-1,4.72-2.24,1.22-2.19,1.47-5,2-7.51a13.87,13.87,0,0,1,1.44-4.84c0,1.07.13,2.15.14,3.23,0,2.67-.24,5.92,3.36,6.09s3.68-3.05,3.78-5.73c.14-4.1.64-8,3.14-11.56a10.61,10.61,0,0,1,10.16-4.83c1.87.17,4.35,2.4,5.11,4.27,4,9.82,4.84,20.2,4,30.67-.49,6.27-5.69,8-10.57,9.91-1.09.42-2.69.71-3.08,1.53a7,7,0,0,0-.57,4.7c.29.92,2.25,1.87,3.41,1.82,2.06-.09,4.08-.94,7.15-1.74-2.49,2.28-4.37,3.9-6.14,5.64-1.92,1.87-4.09,3.9-1.61,6.7,1.79,2,6,1.38,8-1.16,1.18-1.48,1.81-3.4,3-4.87,1.94-2.4,4.14-4.59,6.81-7.51,1.4,4.56.68,7.5-1.81,9.67-4.28,3.73-8.08,8.34-14.42,8.75a5.73,5.73,0,0,0-2.33.88c-2.79,1.57-4.37,5.8-3.22,8.4.92,2.07,4.61,3,7.73,1.71a36.85,36.85,0,0,0,4.08-2.21c1.15,5.53,3,5.85,9.66,1.86,5.8,3,8.23,1.88,10.49-4.51,1.39-3.93,2.89-7.84,4.62-11.62,3-6.6,8.91-10.14,14.95-13.48,2.17-1.2,3.49-.53,4.58,1.6,3.47,6.76,3,14,2.41,21.16a88.57,88.57,0,0,1-3.05,15.47c-1.66,6.27-9.66,10.45-15.65,8.54-5-1.59-5-1.59-6.66,2.58-2.56-.18-5-.73-7.18-.27-.62.13-.6,3.27-.91,5.3a3.6,3.6,0,0,0-1.38,0c-1.55.53-3,1.2-4.57,1.81.72,1.75,1.15,3.72,2.25,5.19s2.77,2.21,3.9,3.07c-1,1.26-2.8,2.51-2.74,3.64a6.88,6.88,0,0,0,2.48,4.71,11.88,11.88,0,0,0,6,1.7c5.18.23,10.38.07,15.57.07l.21,1.28c-1.94.46-3.86,1-5.83,1.35-1.41.24-3.05-.25-4.26.31s-2.82,1.91-3.1,3.16c-.2.91,1.22,2.76,2.34,3.28,3.09,1.42,6.13.4,8.86-1.34,5-3.19,9.9-4.5,15.34-.76,6.8,4.67,11.33,10.57,10.27,19.15a11.46,11.46,0,0,1-7.18,9.31c-8.75,3.58-17.86,5.47-27.38,4.25a21.15,21.15,0,0,1-15.76-10.12c-3.3-5.11-5.92-10.4-6.37-16.56-.33-4.57-2.94-6.23-7.46-4.45-1.61-2.58-3.15-5.27-4.94-7.77a15.74,15.74,0,0,0-3.12-2.63l-2.28,3.57c.22,0,0,.05-.21,0l-6-.69c-.15,2.16-1,4.56-.32,6.43,1.68,4.72,4.09,9.17,6.08,13.79a17.22,17.22,0,0,1,.74,3.78l-1.07.38c-.55-1-1.2-2.06-1.65-3.16-3.16-7.62-6.26-15.26-9.42-22.87a4.46,4.46,0,0,0-1.34-2.09,5.17,5.17,0,0,0-3.19-1c-.61.11-1.44,1.67-1.36,2.5a24.54,24.54,0,0,0,1.38,7.33c3.35,7.93,7,15.74,10.54,23.57-3.28,1.8-3.85,3.32-1.82,6.4,1.9,2.89,4.29,5.46,6.45,8.18a37.43,37.43,0,0,1,8,17.07c.55,3.16-.56,5.37-3.49,6.7A41.38,41.38,0,0,1,229,259.24a11.65,11.65,0,0,1-9.28-6.07,66.29,66.29,0,0,0-4.42-7c-3.28-4.31-4-9.1-3.28-14.29.27-2,1-4.61-1.63-5.12-1.65-.32-3.62,1.06-5.69,1.75a37.79,37.79,0,0,0-.11-6.38c-.19-1.24-1.49-2.3-2.3-3.43-1.07,1-2.85,1.8-3.07,2.94-.55,2.86-.4,5.86-.85,8.85-2.52-3.53-2.32-7.53-1.87-11.59.21-1.9.41-3.8.5-5.71a4.05,4.05,0,0,0-4.07-4.56c-2.64-.1-2.51,2.39-2.54,4.31,0,3.43,0,6.86,0,10.3l-1,.26c-.59-2-1.54-4-1.68-6.05a103.49,103.49,0,0,1,0-11.14c.1-2.57-.92-3.83-3.51-3.81s-3.28,1.8-3,3.88,1,4.4,1.36,6.64c.9,6.26,1.68,12.55,2.51,18.83Z"/><path class="cls-2" d="M85.89,131c3.74,1.2,7.75,2.11,11.37,3.85,1.47.7,2.09,3.18,3.23,5.08C94.62,141.53,88.06,137,85.89,131Z"/><path class="cls-2" d="M253.37,140.39c-.43-4.28.75-5.59,4.46-6.29a69.33,69.33,0,0,0,8.22-2.56C264.78,136.54,258.57,141,253.37,140.39Z"/><path class="cls-6" d="M286.73,177.83c-5.25.63-12.64-3.3-14.29-7.6C276.32,169,282.9,172.45,286.73,177.83Z"/><path class="cls-6" d="M80.71,169.71c-2.48,5-9.14,8.49-15,8.09C70.2,174,73.83,169.54,80.71,169.71Z"/><path class="cls-6" d="M293.45,184.28c-12.68,1.35-16.85,1.62-18-3.69Z"/><path class="cls-7" d="M77.51,180.51c-2,6-6.1,4.74-17.06,4.66-.06-.3-.13-.6-.19-.9Z"/><path class="cls-7" d="M265.41,141.63l12.41-13.24c-.36,4.65-7.09,12.83-11.39,14.2Z"/><path class="cls-8" d="M75.36,129.12c4,4.17,9.12,7.43,11.24,13.26-6-2.38-9.13-7.33-11.53-13Z"/><path class="cls-2" d="M240.81,211.43c-2.88-8.12-8.56-15.14-9.58-24l.85-.34q5,11.86,9.95,23.72Z"/><path class="cls-7" d="M291.2,172.35c-5.09.26-11.22-3.71-13.08-9.3a55.77,55.77,0,0,1,13,9.35Z"/><path class="cls-7" d="M74.38,164.2c-2,4.52-7.52,8.23-12.62,7.81l11.86-8.74Z"/><path class="cls-7" d="M96.49,125.23c-4.21.92-6-.79-7.48-8.12l8.27,7Z"/><path class="cls-7" d="M264.51,116.94c-1.05,2.34-1.77,4.91-3.25,6.93-.88,1.19-2.95,1.49-4.81,1.64,1.26-4.47,4.77-6.4,8.11-8.51Z"/><path class="cls-7" d="M299.74,181.28,287.8,176l.82-1.83,12,5.31Z"/><path class="cls-7" d="M52.22,179.58l11.56-5.3c.17.35.33.7.49,1-2.8,3.86-7.27,4.31-11.38,5.5C52.66,180.41,52.44,180,52.22,179.58Z"/><path class="cls-4" d="M263.13,207.64c-1.8-2.81-3.44-5.67-2.75-9.22,2.74,2.55,1.95,6.13,2.69,9.27Z"/><path class="cls-2" d="M194.79,212l-.93,8.48-.77,0v-8.68Z"/><path class="cls-7" d="M65.69,194.89,58.38,194l.15-.88h7.36C65.82,193.68,65.75,194.28,65.69,194.89Z"/><path class="cls-8" d="M294.43,193.78l-7.17,1.28L287,193.6c2.07-2,4.82-.65,7.22-1C294.28,193,294.36,193.39,294.43,193.78Z"/><path class="cls-2" d="M90.2,205.33q.58-3.5,1.15-7l1.44.29c.55,2.61-1,4.84-2,7.16Z"/><path class="cls-2" d="M269.09,129.74l-1.43,1-.45-.55,1.36-1.16C268.74,129.29,268.92,129.51,269.09,129.74Z"/><path class="cls-2" d="M89.71,207.68c.16-.78.33-1.56.5-2.35l.55.46-1.12,1.84Z"/><path class="cls-5" d="M185,231.87c.07.4.15.8.22,1.2l-.92-.55Z"/><path class="cls-5" d="M264,113.59l-1.52.53,1-1.07Z"/><path class="cls-5" d="M90,114.56l-1.23-1,.5-.53,1.28.91Z"/><path class="cls-7" d="M291.15,172.4c.08,0,.18.07.26.12s0,.12,0,.18l-.25-.35Z"/><path class="cls-5" d="M89.5,139.74l-.22.23c-.07-.08-.2-.16-.2-.24s.13-.15.21-.23Z"/><path class="cls-5" d="M132.75,74.94l-.14.21-.32-.25c.08-.07.17-.2.25-.19S132.68,74.86,132.75,74.94Z"/><path class="cls-5" d="M88.77,113.56l-.43-.71.93.18Z"/><path class="cls-5" d="M263.52,113.05l.93-.19c-.14.24-.28.48-.41.73Z"/><path class="cls-5" d="M90.78,115.19l-.78-.63.55-.62.82.62Z"/><path class="cls-8" d="M75.07,129.41l-.08-.8.37.51Z"/><path class="cls-7" d="M87.51,116.27l.45.39-.41-.43Z"/><path class="cls-7" d="M87.55,116.23l-.41-.24c.07,0,.16,0,.2,0a1.67,1.67,0,0,1,.17.26Z"/><path class="cls-7" d="M264.56,117a1.17,1.17,0,0,1,.17-.28s.14,0,.21,0l-.43.21Z"/><path class="cls-5" d="M91.37,114.56l.56.78-1.15-.15Z"/></g></g></svg>