<?xml version="1.0" standalone="no"?>
<!DOCTYPE svg PUBLIC "-//W3C//DTD SVG 20010904//EN"
 "http://www.w3.org/TR/2001/REC-SVG-20010904/DTD/svg10.dtd">
<svg version="1.0" xmlns="http://www.w3.org/2000/svg"
 width="700.000000pt" height="700.000000pt" viewBox="0 0 700.000000 700.000000"
 preserveAspectRatio="xMidYMid meet">
<metadata>
Created by potrace 1.14, written by Peter Selinger 2001-2017
</metadata>
<g transform="translate(0.000000,700.000000) scale(0.100000,-0.100000)"
fill="#000000" stroke="none">
<path d="M3244 6919 c-65 -45 -131 -91 -145 -103 -14 -11 -43 -34 -64 -51 -60
-46 -124 -102 -192 -165 l-61 -59 -58 16 c-45 11 -66 24 -90 51 -46 54 -69 79
-132 150 l-56 63 -45 -50 c-130 -142 -276 -336 -376 -503 -31 -51 -60 -92 -65
-91 -16 4 -155 97 -158 105 -2 4 -8 8 -13 8 -5 0 -50 27 -99 60 l-88 59 -65
-132 c-72 -149 -151 -351 -196 -505 -16 -57 -32 -106 -34 -108 -2 -3 -92 25
-199 61 -107 36 -200 65 -205 65 -9 0 -40 -139 -57 -255 -2 -16 -7 -48 -11
-70 -13 -90 -25 -247 -28 -382 l-2 -92 -55 4 c-30 2 -104 6 -165 9 -60 4 -134
9 -162 12 l-53 5 5 -88 c3 -48 8 -110 11 -138 3 -27 7 -66 9 -86 4 -36 29
-195 40 -254 7 -33 41 -179 51 -211 5 -18 0 -24 -28 -32 -31 -10 -106 -26
-174 -38 -109 -18 -200 -38 -208 -45 -24 -22 157 -464 278 -677 l36 -62 -192
-96 c-106 -53 -192 -101 -190 -106 6 -23 151 -229 230 -327 85 -105 130 -156
215 -243 51 -52 51 -57 4 -97 -16 -14 -34 -29 -41 -35 -12 -12 -152 -136 -204
-182 l-33 -29 48 -43 c136 -124 348 -283 504 -377 51 -30 94 -57 96 -59 4 -3
-38 -67 -189 -293 l-48 -72 123 -59 c166 -81 393 -168 570 -217 31 -9 57 -20
57 -24 0 -4 -29 -95 -65 -202 -36 -106 -65 -196 -65 -200 0 -7 69 -22 195 -43
196 -33 328 -46 506 -50 l94 -2 -1 -60 c-1 -32 -5 -113 -9 -179 -4 -66 -8
-136 -9 -155 l-1 -35 65 1 c68 0 210 11 247 18 12 3 47 7 78 11 47 5 122 19
270 51 81 17 74 20 176 -78 52 -51 118 -112 146 -135 l50 -43 119 179 119 179
30 -22 c67 -50 166 -117 255 -171 133 -81 362 -197 371 -188 4 5 35 91 70 193
34 102 65 189 69 193 4 5 57 -9 117 -31 100 -37 325 -106 376 -116 12 -2 33
-7 47 -10 14 -3 39 -8 55 -11 28 -5 139 -25 141 -25 0 0 1 6 1 13 0 6 4 62 8
122 4 61 8 130 10 155 1 25 3 66 4 93 1 46 2 47 29 42 120 -23 600 -27 739 -5
1 0 -2 14 -7 30 -5 17 -9 33 -9 35 0 3 -2 18 -5 33 -3 15 -8 41 -11 57 -2 17
-16 82 -29 145 -13 63 -22 116 -21 118 2 2 18 5 36 7 19 3 45 7 59 10 14 3 43
7 65 11 22 3 48 7 57 10 9 3 25 6 35 8 115 23 458 127 475 144 4 4 -35 92 -87
197 l-93 189 71 31 c166 73 359 181 515 288 66 45 86 70 64 79 -8 3 -63 62
-162 177 -30 35 -65 75 -78 88 -13 13 -22 27 -20 32 2 4 44 42 93 84 175 147
458 442 437 456 -5 3 -86 57 -180 120 l-172 113 45 62 c122 166 356 580 338
596 -4 4 -95 36 -200 71 -106 35 -193 68 -193 72 0 5 20 63 44 130 36 100 76
231 101 335 18 70 54 256 51 259 -5 5 -50 10 -167 18 -87 6 -137 9 -246 14 -9
1 -11 13 -8 39 13 103 16 159 20 295 l3 149 74 111 c41 62 83 124 92 139 l18
28 -133 64 c-74 35 -175 79 -225 99 -103 41 -302 107 -320 107 -6 0 -19 26
-28 58 l-16 58 50 149 c28 82 50 154 50 161 0 18 -217 60 -415 79 -38 4 -79 9
-89 11 -11 2 -66 4 -122 5 l-103 2 -31 51 -32 50 7 115 c3 64 8 139 11 169 l4
52 -92 -5 c-210 -13 -323 -28 -526 -72 l-123 -26 -40 39 c-34 35 -41 49 -59
134 -27 126 -29 138 -36 185 -4 22 -8 42 -10 44 -5 5 -62 -12 -194 -59 -137
-49 -188 -71 -352 -152 -75 -38 -141 -68 -147 -68 -24 0 -99 56 -114 84 -9 17
-41 83 -72 146 -31 63 -58 116 -59 117 -2 2 -56 -34 -122 -78z"/>
</g>
</svg>
